<svg version="1.1" id="Layer_1" xmlns="http://www.w3.org/2000/svg" xmlns:xlink="http://www.w3.org/1999/xlink" x="0px" y="0px"
	 width="100%" viewBox="0 0 1024 1024" enable-background="new 0 0 1024 1024" xml:space="preserve">
<path fill="#FFFFFF" opacity="1.000000" stroke="none" 
	d="
M572.000000,1025.000000 
	C381.333344,1025.000000 191.166672,1025.000000 1.000000,1025.000000 
	C1.000000,683.666687 1.000000,342.333344 1.000000,1.000000 
	C342.333344,1.000000 683.666687,1.000000 1025.000000,1.000000 
	C1025.000000,342.333344 1025.000000,683.666687 1025.000000,1025.000000 
	C874.166687,1025.000000 723.333313,1025.000000 572.000000,1025.000000 
M865.245789,221.186172 
	C865.245789,221.186172 864.983826,220.986481 865.014465,220.275528 
	C874.865540,203.700424 884.457458,186.963394 894.672607,170.615784 
	C900.105347,161.921600 908.094666,155.692856 918.196533,153.115295 
	C933.884583,149.112366 944.194214,138.836899 951.734131,125.264519 
	C954.157471,120.902359 958.170715,115.809479 954.123596,111.057526 
	C949.879395,106.074341 943.729675,108.380234 938.811707,110.652550 
	C921.039978,118.863930 908.943115,132.804977 901.968018,150.749054 
	C897.713989,161.693100 890.139893,169.873428 883.011169,179.978577 
	C883.011169,172.568954 883.386169,166.558167 882.935181,160.610001 
	C881.912781,147.124664 879.042847,134.157242 868.963257,124.169884 
	C864.983154,120.226158 860.435608,115.366211 854.241699,118.439163 
	C848.379456,121.347565 848.220764,127.872101 848.776306,133.475021 
	C850.945312,155.348373 856.011475,176.215317 872.236633,192.525452 
	C874.348877,194.648773 874.099731,196.258804 872.678894,198.553879 
	C869.615784,203.501938 866.517578,208.466705 863.959351,213.682449 
	C848.294495,245.619019 832.777466,277.628082 817.206848,309.610870 
	C816.490234,311.082855 815.732178,312.534729 814.983887,314.014801 
	C811.652710,305.370819 808.714905,297.250275 805.352112,289.309753 
	C804.272949,286.761505 804.551941,285.416382 806.303223,283.285492 
	C813.047302,275.079742 819.633606,266.727448 825.916016,258.163727 
	C832.554871,249.114166 834.285339,238.681549 832.824524,227.754349 
	C832.431580,224.814697 830.839722,222.035324 829.798218,219.182404 
	C827.107910,220.664047 823.887634,221.622269 821.818542,223.717392 
	C812.565430,233.086945 805.687134,244.029297 802.048523,256.778290 
	C800.592529,261.879852 799.673035,267.134521 798.441528,272.621460 
	C790.656494,264.881165 787.973755,255.932571 786.941284,245.729553 
	C784.919739,225.752182 774.196899,211.880630 755.064148,204.979965 
	C748.380554,202.569366 746.132324,204.175415 745.927307,211.199814 
	C745.278076,233.454117 758.690430,252.736710 779.886536,260.159363 
	C781.571899,260.749573 783.428955,261.564178 784.584106,262.838501 
	C792.221069,271.263702 797.094910,281.290741 801.077271,291.956543 
	C798.832703,291.343658 796.959900,290.412689 795.183411,289.324371 
	C781.174072,280.742310 766.241943,279.051971 750.506531,283.273132 
	C747.127502,284.179626 743.309875,284.771454 742.474915,288.951660 
	C741.643188,293.115417 744.218384,295.844269 747.367432,298.053619 
	C758.182983,305.641754 770.079834,311.035034 783.248535,311.878143 
	C791.313965,312.394531 799.532043,310.526062 807.940247,309.703308 
	C810.720337,318.816223 811.435913,328.430573 807.414062,338.291290 
	C804.918030,344.411072 803.397766,350.954498 801.749268,357.387146 
	C800.086975,363.873322 798.807556,370.457611 797.360413,376.998962 
	C795.277039,374.772797 794.207947,372.438965 793.521973,369.997467 
	C789.438538,355.464417 781.696655,343.228516 770.065979,333.680908 
	C767.259949,331.377441 763.880554,327.364197 759.561096,330.114990 
	C755.468323,332.721436 756.917664,337.328156 757.641541,341.164032 
	C761.622742,362.258667 772.184814,379.464569 788.379395,393.486389 
	C791.014587,395.767975 792.311890,399.594788 793.308899,402.858734 
	C789.502319,403.250092 785.668335,403.466583 781.893494,404.059967 
	C746.534058,409.618317 717.873657,426.270905 698.760925,456.885559 
	C691.185547,469.019775 686.234009,482.789764 680.043518,495.793884 
	C679.308594,497.337555 678.293091,498.747650 677.407654,500.219635 
	C676.971069,499.979340 676.534485,499.739044 676.097900,499.498749 
	C676.033020,498.349091 675.911194,497.199402 675.911682,496.049774 
	C675.924561,464.389709 675.503113,432.720581 676.146851,401.073151 
	C676.511719,383.130951 678.020691,365.152161 680.143799,347.324371 
	C681.859436,332.917267 686.054565,318.850464 694.825562,306.994568 
	C698.344116,302.238556 699.469238,297.856995 698.628052,292.780640 
	C682.963562,290.823608 667.418640,289.335907 652.033508,286.856476 
	C626.828186,282.794434 602.158813,276.693939 580.228210,262.832703 
	C575.580139,259.894897 571.045837,259.914825 565.847900,260.528870 
	C565.847900,262.101532 565.847839,263.418762 565.847839,264.735992 
	C565.847595,415.204895 565.856201,565.673767 565.782654,716.142639 
	C565.781250,719.100342 566.567383,720.903442 569.049866,722.668457 
	C637.232239,771.145935 712.879211,795.835144 796.763184,793.846619 
	C834.815430,792.944519 868.295288,779.596863 896.438232,753.953186 
	C934.275940,719.475586 952.045776,675.261047 956.950562,625.238892 
	C959.398010,600.278076 958.610840,575.323364 954.999023,550.482849 
	C950.699524,520.912354 942.242004,492.711517 926.315063,467.206879 
	C907.356323,436.847229 881.562134,415.208588 846.206787,406.295288 
	C830.565125,402.351898 814.622314,401.759338 798.608459,401.226868 
	C799.363098,395.120148 800.101135,389.011322 800.876465,382.907227 
	C801.949646,374.458801 803.484497,373.091003 811.638306,371.019592 
	C831.867493,365.880463 848.776733,355.753693 860.028259,337.592865 
	C862.088135,334.268036 865.296875,330.286102 862.299194,326.681091 
	C859.253540,323.018402 854.335510,324.535492 850.679077,326.463165 
	C842.910828,330.558624 835.214233,334.882690 827.922729,339.762268 
	C821.112061,344.320129 814.863159,349.717438 807.339233,355.540741 
	C813.756775,330.215149 823.198547,307.451111 833.732544,284.726532 
	C841.275696,287.569183 848.499939,290.446808 855.830627,293.021240 
	C870.038086,298.010681 884.438416,298.839294 898.935669,294.298828 
	C902.568970,293.160889 905.629395,291.158844 906.206177,286.931824 
	C906.805054,282.543610 904.017639,280.299713 900.685120,278.350922 
	C884.501038,268.886780 867.608337,265.785980 849.485840,272.206696 
	C846.341003,273.320862 842.915649,273.643127 838.227478,274.621857 
	C843.303284,263.784943 847.842468,254.376160 852.117371,244.848755 
	C854.293823,239.998062 857.649963,238.406250 862.974915,237.924057 
	C874.681519,236.864014 886.451050,235.442688 897.896667,232.851593 
	C909.465332,230.232651 917.810913,222.482803 923.515259,212.102692 
	C926.129822,207.345154 925.463135,204.949799 920.446411,204.043762 
	C915.475952,203.146057 910.163940,202.909515 905.170410,203.601135 
	C890.303284,205.660278 877.725952,213.202133 865.245789,221.186172 
M474.856781,596.500061 
	C474.856781,484.552094 474.856781,372.604156 474.856781,260.488434 
	C468.909058,259.849213 464.040161,260.204681 458.898865,263.429993 
	C433.345459,279.460480 404.345703,284.759796 375.137054,288.972717 
	C363.983643,290.581451 352.695190,291.254181 340.595490,292.438904 
	C341.171478,296.129944 340.504852,300.790771 342.524200,303.204346 
	C350.036072,312.182831 353.960144,322.660370 356.928680,333.581512 
	C363.193054,356.627777 363.687927,380.329376 363.932068,403.979797 
	C364.227936,432.641998 364.026855,461.309326 364.040710,489.974457 
	C364.041473,491.590118 364.040802,493.205750 364.040802,494.821411 
	C363.594025,495.057892 363.147247,495.294373 362.700500,495.530853 
	C361.745972,494.374603 360.506470,493.352722 359.887024,492.038513 
	C357.410736,486.784912 355.346130,481.330139 352.735931,476.147919 
	C337.933228,446.759033 316.613251,424.097717 285.484985,411.757507 
	C261.270721,402.158203 236.075363,400.087524 210.385162,402.463135 
	C186.794907,404.644562 164.805191,411.680786 145.275253,425.342194 
	C113.884048,447.300690 93.464752,477.393158 80.857368,513.181946 
	C68.544937,548.133423 64.836761,584.120667 67.890106,620.908936 
	C70.976471,658.095093 80.959953,693.162354 101.158409,724.806152 
	C116.311447,748.545593 135.971344,767.809998 161.662933,779.897827 
	C195.655716,795.891418 231.238510,797.750610 267.473175,789.371582 
	C297.995270,782.313599 322.733459,766.202576 340.963226,740.510803 
	C349.285797,728.781616 355.622864,716.025452 360.264618,702.419312 
	C361.137421,699.860840 361.973541,697.172180 364.366516,698.497375 
	C367.391205,712.193115 369.391083,725.055786 373.144196,737.384766 
	C379.380341,757.870728 391.533997,774.171692 410.963379,784.221375 
	C426.770203,792.397278 443.812073,794.594727 461.343750,793.930786 
	C485.737732,793.006958 505.320618,783.527710 518.301819,762.046631 
	C529.601135,743.348633 535.499695,723.054138 537.489258,701.275757 
	C533.546021,700.487854 530.017151,699.782715 526.616943,699.103271 
	C524.856934,703.534790 523.513123,707.829956 521.504639,711.787842 
	C517.178406,720.312866 510.465393,725.611267 500.444916,724.938354 
	C491.127228,724.312744 485.545197,718.501221 481.747009,710.458374 
	C477.334473,701.114502 475.195831,691.202209 475.096222,680.992920 
	C474.824738,653.163879 474.911743,625.331299 474.856781,596.500061 
M933.628052,884.032898 
	C932.677246,886.970459 931.726379,889.908020 930.492981,893.718567 
	C928.054749,886.344482 925.930298,879.883789 923.782410,873.430969 
	C920.138306,862.483521 920.131958,862.484070 908.569580,862.862732 
	C908.245789,862.873352 907.925537,862.992432 907.229492,863.140442 
	C903.943909,872.806641 900.594360,882.661194 896.828003,893.741882 
	C893.377502,882.412415 890.396790,872.625549 887.499756,863.113281 
	C881.999817,863.113281 877.087219,863.113281 871.818665,863.113281 
	C876.614685,877.654663 881.304626,891.823242 885.959473,906.003479 
	C889.725342,917.475891 889.706604,917.484009 901.660156,917.115540 
	C901.979187,917.105713 902.293396,916.937683 902.820740,916.780640 
	C906.271484,906.982788 909.764465,897.065063 913.593140,886.194153 
	C916.176025,893.574707 918.420959,899.979858 920.659119,906.387390 
	C924.618835,917.723938 924.617310,917.727112 936.693054,917.063660 
	C937.004944,917.046570 937.305664,916.827148 937.721130,916.657349 
	C943.559387,898.930664 949.420532,881.134583 955.451050,862.824280 
	C951.065735,862.824280 947.247498,862.977478 943.448730,862.771179 
	C940.852417,862.630249 939.607666,863.426208 938.930725,866.059509 
	C937.442993,871.846558 935.581543,877.537598 933.628052,884.032898 
M749.286926,862.824646 
	C740.209229,862.824646 731.131531,862.824646 722.275024,862.824646 
	C722.275024,881.223694 722.275024,898.939392 722.275024,916.595459 
	C727.258789,916.595459 731.857605,916.595459 736.999878,916.595459 
	C736.999878,911.145203 736.999878,905.930786 736.999878,900.950867 
	C741.721985,899.583740 744.401428,901.145813 746.412781,904.941956 
	C748.193542,908.302795 750.518494,911.388855 752.755615,914.486145 
	C753.454285,915.453430 754.620728,916.685059 755.621338,916.730530 
	C760.656067,916.959290 765.706787,916.835510 771.575500,916.835510 
	C766.967285,910.086792 762.924744,904.166565 759.924072,899.772156 
	C763.446960,894.671936 767.453064,890.958252 768.862122,886.435486 
	C772.868835,873.575012 765.517273,864.747620 749.286926,862.824646 
M502.886353,908.362122 
	C503.396576,907.706177 503.931641,907.067932 504.413239,906.391541 
	C512.724854,894.719177 511.544800,879.582947 501.579895,869.962708 
	C491.188354,859.930603 473.935883,858.971130 462.654907,867.798035 
	C451.316315,876.670227 448.378357,891.589600 455.515808,904.051697 
	C464.908417,920.451416 487.268982,922.757629 502.886353,908.362122 
M797.546387,903.838501 
	C804.974670,915.768127 817.697205,920.582947 831.695190,916.762146 
	C842.841248,913.719788 851.481567,903.014465 852.004517,891.599060 
	C852.561096,879.449219 846.105347,869.020020 835.012939,864.149353 
	C823.985535,859.307251 810.238586,861.910828 801.752380,870.448792 
	C793.248596,879.004395 791.544678,891.118774 797.546387,903.838501 
M666.806030,875.930603 
	C673.528564,873.426758 679.089355,876.107666 684.460693,880.159485 
	C687.401245,876.559631 690.223267,873.104980 693.048950,869.645752 
	C684.345947,862.871338 676.984985,860.819092 666.314819,862.085876 
	C654.374634,863.503418 644.537231,873.103760 642.323853,885.498474 
	C640.249451,897.115112 646.278687,909.497192 656.991394,914.639709 
	C669.775879,920.776855 681.876099,918.350403 693.308899,910.814270 
	C694.047241,910.327576 694.921204,909.336609 694.933105,908.567749 
	C695.053162,900.824890 695.006226,893.079407 695.006226,885.394043 
	C686.383484,885.394043 678.456116,885.394043 670.317627,885.394043 
	C670.317627,889.035217 670.317627,892.433838 670.317627,896.178711 
	C672.191040,896.178711 673.827271,896.178711 675.463562,896.178711 
	C677.208557,896.178711 678.953552,896.178711 680.647339,896.178711 
	C681.048401,903.403931 680.206970,904.382324 673.856018,904.884888 
	C666.432556,905.472290 660.354736,901.674500 658.270691,895.146179 
	C655.797363,887.398499 658.667725,880.391113 666.806030,875.930603 
M183.419922,862.812988 
	C171.362930,862.812988 159.305939,862.812988 147.460815,862.812988 
	C147.460815,881.267944 147.460815,898.967529 147.460815,916.621460 
	C162.104004,916.621460 176.354340,916.621460 190.636810,916.621460 
	C190.636810,912.353271 190.636810,908.327454 190.636810,904.049377 
	C180.993774,904.049377 171.725723,904.049377 162.339859,904.049377 
	C162.339859,901.075684 162.339859,898.374390 162.339859,895.386719 
	C170.951569,895.386719 179.239319,895.386719 187.655045,895.386719 
	C187.655045,891.385376 187.655045,887.679626 187.655045,883.699341 
	C179.058823,883.699341 170.781937,883.699341 162.284607,883.699341 
	C162.284607,880.860474 162.284607,878.302917 162.284607,875.359131 
	C171.814240,875.359131 181.078964,875.359131 190.514038,875.359131 
	C190.514038,871.066772 190.514038,867.163452 190.514038,862.812988 
	C188.311569,862.812988 186.353943,862.812988 183.419922,862.812988 
M119.078339,909.420715 
	C119.078339,893.983215 119.078339,878.545776 119.078339,863.132446 
	C113.817215,863.132446 109.088913,863.132446 103.984245,863.132446 
	C103.984245,869.844910 103.984245,876.263184 103.984245,882.793274 
	C97.512711,882.793274 91.430229,882.793274 84.817108,882.793274 
	C84.817108,876.050476 84.817108,869.492126 84.817108,863.000122 
	C79.660347,863.000122 75.037346,863.000122 70.353806,863.000122 
	C70.353806,881.020081 70.353806,898.864624 70.353806,916.579224 
	C75.360725,916.579224 79.964653,916.579224 84.995682,916.579224 
	C84.995682,909.746765 84.995682,903.160828 84.995682,896.409058 
	C91.507423,896.409058 97.578262,896.409058 104.073006,896.409058 
	C104.073006,899.931763 104.073006,903.224060 104.073006,906.516296 
	C104.073006,909.805725 104.073006,913.095093 104.073006,916.572205 
	C109.275543,916.572205 114.000534,916.572205 119.078133,916.572205 
	C119.078133,914.337036 119.078133,912.367493 119.078339,909.420715 
M535.513062,872.559021 
	C535.576233,880.384460 535.329895,888.227356 535.772095,896.031311 
	C536.512268,909.094971 543.233582,916.008728 556.142822,917.688660 
	C570.873779,919.605652 583.341736,913.047852 584.667236,900.795593 
	C586.011292,888.371155 584.963867,875.688049 584.963867,863.031128 
	C580.575012,863.031128 575.800232,863.031128 570.654541,863.031128 
	C570.654541,865.546753 570.670532,867.857544 570.651672,870.168152 
	C570.583801,878.491150 570.852051,886.836243 570.322205,895.130127 
	C569.874268,902.141174 565.557678,905.060486 558.692139,903.990051 
	C553.668457,903.206848 551.010315,899.827637 550.929993,893.483276 
	C550.802124,883.379211 550.895813,873.272461 550.895813,863.005371 
	C545.536255,863.005371 540.758057,863.005371 535.513123,863.005371 
	C535.513123,865.972046 535.513123,868.776062 535.513062,872.559021 
M283.072449,914.192566 
	C283.741516,915.073242 284.369812,916.675476 285.086365,916.715942 
	C289.337219,916.956177 293.608521,916.834534 298.302490,916.834534 
	C298.302490,911.279785 298.302490,906.360779 298.302490,900.989746 
	C302.713501,900.989746 306.716064,901.286072 310.660309,900.932251 
	C321.003540,900.004333 328.279022,892.646729 328.779724,882.977539 
	C329.305817,872.818237 322.933502,864.448181 312.189392,863.364563 
	C302.690216,862.406555 293.018036,863.164001 283.071472,863.164001 
	C283.071472,879.990234 283.071472,896.615845 283.072449,914.192566 
M385.915863,873.620422 
	C386.861969,875.185059 387.689331,876.837708 388.772980,878.300415 
	C397.006744,889.413757 402.254089,901.405701 400.056091,915.666138 
	C400.018280,915.911377 400.337372,916.211548 400.511566,916.525024 
	C405.223053,916.525024 409.947754,916.525024 414.474976,916.525024 
	C414.949615,909.126160 414.133240,901.655823 416.211761,895.103821 
	C418.311279,888.485596 423.279541,882.777161 426.993195,876.671509 
	C427.511353,875.819580 428.051880,874.981079 428.564362,874.125732 
	C430.724091,870.520935 432.877075,866.912231 435.320404,862.823242 
	C430.492798,862.823242 426.485596,863.020020 422.508606,862.757751 
	C419.596863,862.565735 418.057343,863.636230 416.734009,866.187134 
	C413.942963,871.566956 410.782166,876.754944 407.568787,882.379333 
	C404.231812,876.518433 401.244904,871.148071 398.110931,865.864807 
	C397.421692,864.702881 396.257629,863.052368 395.231079,862.991272 
	C390.211243,862.692749 385.163940,862.856018 379.440918,862.856018 
	C381.796082,866.791321 383.656738,869.900330 385.915863,873.620422 
M217.025726,904.484985 
	C217.025726,908.556702 217.025726,912.628418 217.025726,916.473145 
	C231.190231,916.473145 244.570648,916.473145 257.764740,916.473145 
	C257.764740,912.030701 257.764740,907.964600 257.764740,903.506042 
	C248.986084,903.506042 240.579132,903.506042 231.764099,903.506042 
	C231.764099,889.699951 231.764099,876.299683 231.764099,863.009094 
	C226.715652,863.009094 222.096436,863.009094 217.025726,863.009094 
	C217.025726,876.621216 217.025726,890.055054 217.025726,904.484985 
z"/>
<path fill="#010101" opacity="1.000000" stroke="none" 
	d="
M474.856750,597.000122 
	C474.911743,625.331299 474.824738,653.163879 475.096222,680.992920 
	C475.195831,691.202209 477.334473,701.114502 481.747009,710.458374 
	C485.545197,718.501221 491.127228,724.312744 500.444916,724.938354 
	C510.465393,725.611267 517.178406,720.312866 521.504639,711.787842 
	C523.513123,707.829956 524.856934,703.534790 526.616943,699.103271 
	C530.017151,699.782715 533.546021,700.487854 537.489258,701.275757 
	C535.499695,723.054138 529.601135,743.348633 518.301819,762.046631 
	C505.320618,783.527710 485.737732,793.006958 461.343750,793.930786 
	C443.812073,794.594727 426.770203,792.397278 410.963379,784.221375 
	C391.533997,774.171692 379.380341,757.870728 373.144196,737.384766 
	C369.391083,725.055786 367.391205,712.193115 364.366516,698.497375 
	C361.973541,697.172180 361.137421,699.860840 360.264618,702.419312 
	C355.622864,716.025452 349.285797,728.781616 340.963226,740.510803 
	C322.733459,766.202576 297.995270,782.313599 267.473175,789.371582 
	C231.238510,797.750610 195.655716,795.891418 161.662933,779.897827 
	C135.971344,767.809998 116.311447,748.545593 101.158409,724.806152 
	C80.959953,693.162354 70.976471,658.095093 67.890106,620.908936 
	C64.836761,584.120667 68.544937,548.133423 80.857368,513.181946 
	C93.464752,477.393158 113.884048,447.300690 145.275253,425.342194 
	C164.805191,411.680786 186.794907,404.644562 210.385162,402.463135 
	C236.075363,400.087524 261.270721,402.158203 285.484985,411.757507 
	C316.613251,424.097717 337.933228,446.759033 352.735931,476.147919 
	C355.346130,481.330139 357.410736,486.784912 359.887024,492.038513 
	C360.506470,493.352722 361.745972,494.374603 362.700500,495.530853 
	C363.147247,495.294373 363.594025,495.057892 364.040802,494.821411 
	C364.040802,493.205750 364.041473,491.590118 364.040710,489.974457 
	C364.026855,461.309326 364.227936,432.641998 363.932068,403.979797 
	C363.687927,380.329376 363.193054,356.627777 356.928680,333.581512 
	C353.960144,322.660370 350.036072,312.182831 342.524200,303.204346 
	C340.504852,300.790771 341.171478,296.129944 340.595490,292.438904 
	C352.695190,291.254181 363.983643,290.581451 375.137054,288.972717 
	C404.345703,284.759796 433.345459,279.460480 458.898865,263.429993 
	C464.040161,260.204681 468.909058,259.849213 474.856781,260.488434 
	C474.856781,372.604156 474.856781,484.552094 474.856750,597.000122 
M182.568802,565.138367 
	C179.777054,595.141663 180.323593,625.032043 186.228027,654.655396 
	C191.308090,680.142578 200.877319,703.558411 218.514450,723.236450 
	C245.428284,753.264648 287.643341,755.563904 317.152679,728.085083 
	C336.999939,709.603516 347.393280,685.813354 352.982025,659.869263 
	C361.645416,619.651917 361.625275,579.193176 353.727173,538.880005 
	C348.900452,514.243713 339.395966,491.558929 322.160919,472.677246 
	C302.405518,451.034393 273.265167,443.369995 246.684128,453.249146 
	C228.200333,460.118805 215.465820,473.742950 205.380829,490.063507 
	C191.349243,512.770996 185.454605,538.044983 182.568802,565.138367 
z"/>
<path fill="#010101" opacity="1.000000" stroke="none" 
	d="
M798.598206,402.158447 
	C814.622314,401.759338 830.565125,402.351898 846.206787,406.295288 
	C881.562134,415.208588 907.356323,436.847229 926.315063,467.206879 
	C942.242004,492.711517 950.699524,520.912354 954.999023,550.482849 
	C958.610840,575.323364 959.398010,600.278076 956.950562,625.238892 
	C952.045776,675.261047 934.275940,719.475586 896.438232,753.953186 
	C868.295288,779.596863 834.815430,792.944519 796.763184,793.846619 
	C712.879211,795.835144 637.232239,771.145935 569.049866,722.668457 
	C566.567383,720.903442 565.781250,719.100342 565.782654,716.142639 
	C565.856201,565.673767 565.847595,415.204895 565.847839,264.735992 
	C565.847839,263.418762 565.847900,262.101532 565.847900,260.528870 
	C571.045837,259.914825 575.580139,259.894897 580.228210,262.832703 
	C602.158813,276.693939 626.828186,282.794434 652.033508,286.856476 
	C667.418640,289.335907 682.963562,290.823608 698.628052,292.780640 
	C699.469238,297.856995 698.344116,302.238556 694.825562,306.994568 
	C686.054565,318.850464 681.859436,332.917267 680.143799,347.324371 
	C678.020691,365.152161 676.511719,383.130951 676.146851,401.073151 
	C675.503113,432.720581 675.924561,464.389709 675.911682,496.049774 
	C675.911194,497.199402 676.033020,498.349091 676.097900,499.498749 
	C676.534485,499.739044 676.971069,499.979340 677.407654,500.219635 
	C678.293091,498.747650 679.308594,497.337555 680.043518,495.793884 
	C686.234009,482.789764 691.185547,469.019775 698.760925,456.885559 
	C717.873657,426.270905 746.534058,409.618317 781.893494,404.059967 
	C785.668335,403.466583 789.502319,403.250092 794.068726,402.870850 
	C796.085083,402.641479 797.341614,402.399963 798.598206,402.158447 
M836.452698,697.883484 
	C839.249451,681.514709 843.114807,665.243286 844.615784,648.756531 
	C847.551880,616.506042 846.718323,584.196533 841.929504,552.098511 
	C838.451172,528.784241 832.551025,506.205719 820.065002,485.848785 
	C812.800293,474.004486 803.752136,463.776886 790.790588,458.158691 
	C764.875916,446.925842 738.105408,454.434723 720.622864,477.372833 
	C703.315918,500.080597 694.298523,526.372498 688.078979,553.771973 
	C680.685120,586.344543 677.540222,619.470825 676.316406,652.782471 
	C675.793518,667.016785 675.077332,681.146667 679.827698,695.212708 
	C689.236267,723.072327 703.145264,747.266602 728.768860,763.380371 
	C753.536499,778.955933 783.379578,775.850891 804.258972,755.317566 
	C820.358765,739.484558 830.025635,720.065857 836.452698,697.883484 
z"/>
<path fill="#45A91A" opacity="1.000000" stroke="none" 
	d="
M798.603333,401.692657 
	C797.341614,402.399963 796.085083,402.641479 794.528015,402.795197 
	C792.311890,399.594788 791.014587,395.767975 788.379395,393.486389 
	C772.184814,379.464569 761.622742,362.258667 757.641541,341.164032 
	C756.917664,337.328156 755.468323,332.721436 759.561096,330.114990 
	C763.880554,327.364197 767.259949,331.377441 770.065979,333.680908 
	C781.696655,343.228516 789.438538,355.464417 793.521973,369.997467 
	C794.207947,372.438965 795.277039,374.772797 797.360413,376.998962 
	C798.807556,370.457611 800.086975,363.873322 801.749268,357.387146 
	C803.397766,350.954498 804.918030,344.411072 807.414062,338.291290 
	C811.435913,328.430573 810.720337,318.816223 807.940247,309.703308 
	C799.532043,310.526062 791.313965,312.394531 783.248535,311.878143 
	C770.079834,311.035034 758.182983,305.641754 747.367432,298.053619 
	C744.218384,295.844269 741.643188,293.115417 742.474915,288.951660 
	C743.309875,284.771454 747.127502,284.179626 750.506531,283.273132 
	C766.241943,279.051971 781.174072,280.742310 795.183411,289.324371 
	C796.959900,290.412689 798.832703,291.343658 801.077271,291.956543 
	C797.094910,281.290741 792.221069,271.263702 784.584106,262.838501 
	C783.428955,261.564178 781.571899,260.749573 779.886536,260.159363 
	C758.690430,252.736710 745.278076,233.454117 745.927307,211.199814 
	C746.132324,204.175415 748.380554,202.569366 755.064148,204.979965 
	C774.196899,211.880630 784.919739,225.752182 786.941284,245.729553 
	C787.973755,255.932571 790.656494,264.881165 798.441528,272.621460 
	C799.673035,267.134521 800.592529,261.879852 802.048523,256.778290 
	C805.687134,244.029297 812.565430,233.086945 821.818542,223.717392 
	C823.887634,221.622269 827.107910,220.664047 829.798218,219.182404 
	C830.839722,222.035324 832.431580,224.814697 832.824524,227.754349 
	C834.285339,238.681549 832.554871,249.114166 825.916016,258.163727 
	C819.633606,266.727448 813.047302,275.079742 806.303223,283.285492 
	C804.551941,285.416382 804.272949,286.761505 805.352112,289.309753 
	C808.714905,297.250275 811.652710,305.370819 814.983887,314.014801 
	C815.732178,312.534729 816.490234,311.082855 817.206848,309.610870 
	C832.777466,277.628082 848.294495,245.619019 863.959351,213.682449 
	C866.517578,208.466705 869.615784,203.501938 872.678894,198.553879 
	C874.099731,196.258804 874.348877,194.648773 872.236633,192.525452 
	C856.011475,176.215317 850.945312,155.348373 848.776306,133.475021 
	C848.220764,127.872101 848.379456,121.347565 854.241699,118.439163 
	C860.435608,115.366211 864.983154,120.226158 868.963257,124.169884 
	C879.042847,134.157242 881.912781,147.124664 882.935181,160.610001 
	C883.386169,166.558167 883.011169,172.568954 883.011169,179.978577 
	C890.139893,169.873428 897.713989,161.693100 901.968018,150.749054 
	C908.943115,132.804977 921.039978,118.863930 938.811707,110.652550 
	C943.729675,108.380234 949.879395,106.074341 954.123596,111.057526 
	C958.170715,115.809479 954.157471,120.902359 951.734131,125.264519 
	C944.194214,138.836899 933.884583,149.112366 918.196533,153.115295 
	C908.094666,155.692856 900.105347,161.921600 894.672607,170.615784 
	C884.457458,186.963394 874.865540,203.700424 864.762695,220.720276 
	C864.529602,221.383392 864.548279,221.601791 864.566956,221.820190 
	C864.881470,221.674286 865.195923,221.528366 865.510376,221.382416 
	C877.725952,213.202133 890.303284,205.660278 905.170410,203.601135 
	C910.163940,202.909515 915.475952,203.146057 920.446411,204.043762 
	C925.463135,204.949799 926.129822,207.345154 923.515259,212.102692 
	C917.810913,222.482803 909.465332,230.232651 897.896667,232.851593 
	C886.451050,235.442688 874.681519,236.864014 862.974915,237.924057 
	C857.649963,238.406250 854.293823,239.998062 852.117371,244.848755 
	C847.842468,254.376160 843.303284,263.784943 838.227478,274.621857 
	C842.915649,273.643127 846.341003,273.320862 849.485840,272.206696 
	C867.608337,265.785980 884.501038,268.886780 900.685120,278.350922 
	C904.017639,280.299713 906.805054,282.543610 906.206177,286.931824 
	C905.629395,291.158844 902.568970,293.160889 898.935669,294.298828 
	C884.438416,298.839294 870.038086,298.010681 855.830627,293.021240 
	C848.499939,290.446808 841.275696,287.569183 833.732544,284.726532 
	C823.198547,307.451111 813.756775,330.215149 807.339233,355.540741 
	C814.863159,349.717438 821.112061,344.320129 827.922729,339.762268 
	C835.214233,334.882690 842.910828,330.558624 850.679077,326.463165 
	C854.335510,324.535492 859.253540,323.018402 862.299194,326.681091 
	C865.296875,330.286102 862.088135,334.268036 860.028259,337.592865 
	C848.776733,355.753693 831.867493,365.880463 811.638306,371.019592 
	C803.484497,373.091003 801.949646,374.458801 800.876465,382.907227 
	C800.101135,389.011322 799.363098,395.120148 798.603333,401.692657 
z"/>
<path fill="#040404" opacity="1.000000" stroke="none" 
	d="
M933.750366,883.650391 
	C935.581543,877.537598 937.442993,871.846558 938.930725,866.059509 
	C939.607666,863.426208 940.852417,862.630249 943.448730,862.771179 
	C947.247498,862.977478 951.065735,862.824280 955.451050,862.824280 
	C949.420532,881.134583 943.559387,898.930664 937.721130,916.657349 
	C937.305664,916.827148 937.004944,917.046570 936.693054,917.063660 
	C924.617310,917.727112 924.618835,917.723938 920.659119,906.387390 
	C918.420959,899.979858 916.176025,893.574707 913.593140,886.194153 
	C909.764465,897.065063 906.271484,906.982788 902.820740,916.780640 
	C902.293396,916.937683 901.979187,917.105713 901.660156,917.115540 
	C889.706604,917.484009 889.725342,917.475891 885.959473,906.003479 
	C881.304626,891.823242 876.614685,877.654663 871.818665,863.113281 
	C877.087219,863.113281 881.999817,863.113281 887.499756,863.113281 
	C890.396790,872.625549 893.377502,882.412415 896.828003,893.741882 
	C900.594360,882.661194 903.943909,872.806641 907.229492,863.140442 
	C907.925537,862.992432 908.245789,862.873352 908.569580,862.862732 
	C920.131958,862.484070 920.138306,862.483521 923.782410,873.430969 
	C925.930298,879.883789 928.054749,886.344482 930.492981,893.718567 
	C931.726379,889.908020 932.677246,886.970459 933.750366,883.650391 
z"/>
<path fill="#040404" opacity="1.000000" stroke="none" 
	d="
M749.755066,862.835205 
	C765.517273,864.747620 772.868835,873.575012 768.862122,886.435486 
	C767.453064,890.958252 763.446960,894.671936 759.924072,899.772156 
	C762.924744,904.166565 766.967285,910.086792 771.575500,916.835510 
	C765.706787,916.835510 760.656067,916.959290 755.621338,916.730530 
	C754.620728,916.685059 753.454285,915.453430 752.755615,914.486145 
	C750.518494,911.388855 748.193542,908.302795 746.412781,904.941956 
	C744.401428,901.145813 741.721985,899.583740 736.999878,900.950867 
	C736.999878,905.930786 736.999878,911.145203 736.999878,916.595459 
	C731.857605,916.595459 727.258789,916.595459 722.275024,916.595459 
	C722.275024,898.939392 722.275024,881.223694 722.275024,862.824646 
	C731.131531,862.824646 740.209229,862.824646 749.755066,862.835205 
M754.216919,884.615295 
	C755.074890,878.857483 753.314514,876.271545 747.901733,875.900391 
	C744.343384,875.656372 740.754761,875.854309 737.168457,875.854309 
	C737.168457,880.403076 737.168457,884.440430 737.168457,888.439880 
	C748.493225,889.650818 749.888611,889.386475 754.216919,884.615295 
z"/>
<path fill="#040404" opacity="1.000000" stroke="none" 
	d="
M502.644775,908.624878 
	C487.268982,922.757629 464.908417,920.451416 455.515808,904.051697 
	C448.378357,891.589600 451.316315,876.670227 462.654907,867.798035 
	C473.935883,858.971130 491.188354,859.930603 501.579895,869.962708 
	C511.544800,879.582947 512.724854,894.719177 504.413239,906.391541 
	C503.931641,907.067932 503.396576,907.706177 502.644775,908.624878 
M472.609375,877.971924 
	C471.606201,879.064148 470.435516,880.045532 469.627502,881.266785 
	C464.903442,888.406616 467.083282,898.431763 474.187317,902.586792 
	C480.651154,906.367432 489.093323,904.041260 492.669037,897.494202 
	C495.822113,891.721008 494.901703,884.228699 490.457397,879.490784 
	C485.943237,874.678406 480.398956,874.052124 472.609375,877.971924 
z"/>
<path fill="#040404" opacity="1.000000" stroke="none" 
	d="
M797.345764,903.521362 
	C791.544678,891.118774 793.248596,879.004395 801.752380,870.448792 
	C810.238586,861.910828 823.985535,859.307251 835.012939,864.149353 
	C846.105347,869.020020 852.561096,879.449219 852.004517,891.599060 
	C851.481567,903.014465 842.841248,913.719788 831.695190,916.762146 
	C817.697205,920.582947 804.974670,915.768127 797.345764,903.521362 
M813.323181,900.176270 
	C819.761841,905.453430 826.991455,905.749573 832.194702,900.949402 
	C837.388611,896.157898 838.149353,886.788574 833.821350,880.914429 
	C829.601929,875.187561 822.356018,873.621826 816.116821,877.088745 
	C808.657776,881.233459 807.197144,891.257874 813.323181,900.176270 
z"/>
<path fill="#050505" opacity="1.000000" stroke="none" 
	d="
M666.428345,876.041626 
	C658.667725,880.391113 655.797363,887.398499 658.270691,895.146179 
	C660.354736,901.674500 666.432556,905.472290 673.856018,904.884888 
	C680.206970,904.382324 681.048401,903.403931 680.647339,896.178711 
	C678.953552,896.178711 677.208557,896.178711 675.463562,896.178711 
	C673.827271,896.178711 672.191040,896.178711 670.317627,896.178711 
	C670.317627,892.433838 670.317627,889.035217 670.317627,885.394043 
	C678.456116,885.394043 686.383484,885.394043 695.006226,885.394043 
	C695.006226,893.079407 695.053162,900.824890 694.933105,908.567749 
	C694.921204,909.336609 694.047241,910.327576 693.308899,910.814270 
	C681.876099,918.350403 669.775879,920.776855 656.991394,914.639709 
	C646.278687,909.497192 640.249451,897.115112 642.323853,885.498474 
	C644.537231,873.103760 654.374634,863.503418 666.314819,862.085876 
	C676.984985,860.819092 684.345947,862.871338 693.048950,869.645752 
	C690.223267,873.104980 687.401245,876.559631 684.460693,880.159485 
	C679.089355,876.107666 673.528564,873.426758 666.428345,876.041626 
z"/>
<path fill="#080808" opacity="1.000000" stroke="none" 
	d="
M183.908127,862.812988 
	C186.353943,862.812988 188.311569,862.812988 190.514038,862.812988 
	C190.514038,867.163452 190.514038,871.066772 190.514038,875.359131 
	C181.078964,875.359131 171.814240,875.359131 162.284607,875.359131 
	C162.284607,878.302917 162.284607,880.860474 162.284607,883.699341 
	C170.781937,883.699341 179.058823,883.699341 187.655045,883.699341 
	C187.655045,887.679626 187.655045,891.385376 187.655045,895.386719 
	C179.239319,895.386719 170.951569,895.386719 162.339859,895.386719 
	C162.339859,898.374390 162.339859,901.075684 162.339859,904.049377 
	C171.725723,904.049377 180.993774,904.049377 190.636810,904.049377 
	C190.636810,908.327454 190.636810,912.353271 190.636810,916.621460 
	C176.354340,916.621460 162.104004,916.621460 147.460815,916.621460 
	C147.460815,898.967529 147.460815,881.267944 147.460815,862.812988 
	C159.305939,862.812988 171.362930,862.812988 183.908127,862.812988 
z"/>
<path fill="#020202" opacity="1.000000" stroke="none" 
	d="
M119.078232,909.909302 
	C119.078133,912.367493 119.078133,914.337036 119.078133,916.572205 
	C114.000534,916.572205 109.275543,916.572205 104.073006,916.572205 
	C104.073006,913.095093 104.073006,909.805725 104.073006,906.516296 
	C104.073006,903.224060 104.073006,899.931763 104.073006,896.409058 
	C97.578262,896.409058 91.507423,896.409058 84.995682,896.409058 
	C84.995682,903.160828 84.995682,909.746765 84.995682,916.579224 
	C79.964653,916.579224 75.360725,916.579224 70.353806,916.579224 
	C70.353806,898.864624 70.353806,881.020081 70.353806,863.000122 
	C75.037346,863.000122 79.660347,863.000122 84.817108,863.000122 
	C84.817108,869.492126 84.817108,876.050476 84.817108,882.793274 
	C91.430229,882.793274 97.512711,882.793274 103.984245,882.793274 
	C103.984245,876.263184 103.984245,869.844910 103.984245,863.132446 
	C109.088913,863.132446 113.817215,863.132446 119.078339,863.132446 
	C119.078339,878.545776 119.078339,893.983215 119.078232,909.909302 
z"/>
<path fill="#040404" opacity="1.000000" stroke="none" 
	d="
M535.513062,872.069580 
	C535.513123,868.776062 535.513123,865.972046 535.513123,863.005371 
	C540.758057,863.005371 545.536255,863.005371 550.895813,863.005371 
	C550.895813,873.272461 550.802124,883.379211 550.929993,893.483276 
	C551.010315,899.827637 553.668457,903.206848 558.692139,903.990051 
	C565.557678,905.060486 569.874268,902.141174 570.322205,895.130127 
	C570.852051,886.836243 570.583801,878.491150 570.651672,870.168152 
	C570.670532,867.857544 570.654541,865.546753 570.654541,863.031128 
	C575.800232,863.031128 580.575012,863.031128 584.963867,863.031128 
	C584.963867,875.688049 586.011292,888.371155 584.667236,900.795593 
	C583.341736,913.047852 570.873779,919.605652 556.142822,917.688660 
	C543.233582,916.008728 536.512268,909.094971 535.772095,896.031311 
	C535.329895,888.227356 535.576233,880.384460 535.513062,872.069580 
z"/>
<path fill="#030303" opacity="1.000000" stroke="none" 
	d="
M283.071960,913.717041 
	C283.071472,896.615845 283.071472,879.990234 283.071472,863.164001 
	C293.018036,863.164001 302.690216,862.406555 312.189392,863.364563 
	C322.933502,864.448181 329.305817,872.818237 328.779724,882.977539 
	C328.279022,892.646729 321.003540,900.004333 310.660309,900.932251 
	C306.716064,901.286072 302.713501,900.989746 298.302490,900.989746 
	C298.302490,906.360779 298.302490,911.279785 298.302490,916.834534 
	C293.608521,916.834534 289.337219,916.956177 285.086365,916.715942 
	C284.369812,916.675476 283.741516,915.073242 283.071960,913.717041 
M301.573975,889.862976 
	C303.557434,889.798279 305.600922,890.015625 307.511597,889.609009 
	C311.268677,888.809387 313.899597,886.555725 313.766388,882.442627 
	C313.635712,878.407898 311.208252,876.014465 307.196228,875.672852 
	C304.281403,875.424683 301.328491,875.624329 298.047241,875.624329 
	C298.047241,878.784912 298.047028,881.575195 298.047394,884.365479 
	C298.047546,885.359863 297.719940,886.528687 298.131714,887.305237 
	C298.669678,888.319885 299.793182,889.023987 301.573975,889.862976 
z"/>
<path fill="#040404" opacity="1.000000" stroke="none" 
	d="
M385.716614,873.314880 
	C383.656738,869.900330 381.796082,866.791321 379.440918,862.856018 
	C385.163940,862.856018 390.211243,862.692749 395.231079,862.991272 
	C396.257629,863.052368 397.421692,864.702881 398.110931,865.864807 
	C401.244904,871.148071 404.231812,876.518433 407.568787,882.379333 
	C410.782166,876.754944 413.942963,871.566956 416.734009,866.187134 
	C418.057343,863.636230 419.596863,862.565735 422.508606,862.757751 
	C426.485596,863.020020 430.492798,862.823242 435.320404,862.823242 
	C432.877075,866.912231 430.724091,870.520935 428.564362,874.125732 
	C428.051880,874.981079 427.511353,875.819580 426.993195,876.671509 
	C423.279541,882.777161 418.311279,888.485596 416.211761,895.103821 
	C414.133240,901.655823 414.949615,909.126160 414.474976,916.525024 
	C409.947754,916.525024 405.223053,916.525024 400.511566,916.525024 
	C400.337372,916.211548 400.018280,915.911377 400.056091,915.666138 
	C402.254089,901.405701 397.006744,889.413757 388.772980,878.300415 
	C387.689331,876.837708 386.861969,875.185059 385.716614,873.314880 
z"/>
<path fill="#030303" opacity="1.000000" stroke="none" 
	d="
M217.025726,903.986938 
	C217.025726,890.055054 217.025726,876.621216 217.025726,863.009094 
	C222.096436,863.009094 226.715652,863.009094 231.764099,863.009094 
	C231.764099,876.299683 231.764099,889.699951 231.764099,903.506042 
	C240.579132,903.506042 248.986084,903.506042 257.764740,903.506042 
	C257.764740,907.964600 257.764740,912.030701 257.764740,916.473145 
	C244.570648,916.473145 231.190231,916.473145 217.025726,916.473145 
	C217.025726,912.628418 217.025726,908.556702 217.025726,903.986938 
z"/>
<path fill="#FEFEFE" opacity="1.000000" stroke="none" 
	d="
M182.626541,564.688232 
	C185.454605,538.044983 191.349243,512.770996 205.380829,490.063507 
	C215.465820,473.742950 228.200333,460.118805 246.684128,453.249146 
	C273.265167,443.369995 302.405518,451.034393 322.160919,472.677246 
	C339.395966,491.558929 348.900452,514.243713 353.727173,538.880005 
	C361.625275,579.193176 361.645416,619.651917 352.982025,659.869263 
	C347.393280,685.813354 336.999939,709.603516 317.152679,728.085083 
	C287.643341,755.563904 245.428284,753.264648 218.514450,723.236450 
	C200.877319,703.558411 191.308090,680.142578 186.228027,654.655396 
	C180.323593,625.032043 179.777054,595.141663 182.626541,564.688232 
z"/>
<path fill="#FEFEFE" opacity="1.000000" stroke="none" 
	d="
M836.314575,698.265991 
	C830.025635,720.065857 820.358765,739.484558 804.258972,755.317566 
	C783.379578,775.850891 753.536499,778.955933 728.768860,763.380371 
	C703.145264,747.266602 689.236267,723.072327 679.827698,695.212708 
	C675.077332,681.146667 675.793518,667.016785 676.316406,652.782471 
	C677.540222,619.470825 680.685120,586.344543 688.078979,553.771973 
	C694.298523,526.372498 703.315918,500.080597 720.622864,477.372833 
	C738.105408,454.434723 764.875916,446.925842 790.790588,458.158691 
	C803.752136,463.776886 812.800293,474.004486 820.065002,485.848785 
	C832.551025,506.205719 838.451172,528.784241 841.929504,552.098511 
	C846.718323,584.196533 847.551880,616.506042 844.615784,648.756531 
	C843.114807,665.243286 839.249451,681.514709 836.314575,698.265991 
z"/>
<path fill="#FFFFFF" opacity="1.000000" stroke="none" 
	d="
M865.378052,221.284302 
	C865.195923,221.528366 864.881470,221.674286 864.566956,221.820190 
	C864.548279,221.601791 864.529602,221.383392 864.747375,221.075745 
	C864.983826,220.986481 865.245789,221.186172 865.378052,221.284302 
z"/>
<path fill="#F7F7F7" opacity="1.000000" stroke="none" 
	d="
M754.085571,884.978699 
	C749.888611,889.386475 748.493225,889.650818 737.168457,888.439880 
	C737.168457,884.440430 737.168457,880.403076 737.168457,875.854309 
	C740.754761,875.854309 744.343384,875.656372 747.901733,875.900391 
	C753.314514,876.271545 755.074890,878.857483 754.085571,884.978699 
z"/>
<path fill="#FAFAFA" opacity="1.000000" stroke="none" 
	d="
M472.920898,877.758484 
	C480.398956,874.052124 485.943237,874.678406 490.457397,879.490784 
	C494.901703,884.228699 495.822113,891.721008 492.669037,897.494202 
	C489.093323,904.041260 480.651154,906.367432 474.187317,902.586792 
	C467.083282,898.431763 464.903442,888.406616 469.627502,881.266785 
	C470.435516,880.045532 471.606201,879.064148 472.920898,877.758484 
z"/>
<path fill="#FAFAFA" opacity="1.000000" stroke="none" 
	d="
M813.079102,899.894165 
	C807.197144,891.257874 808.657776,881.233459 816.116821,877.088745 
	C822.356018,873.621826 829.601929,875.187561 833.821350,880.914429 
	C838.149353,886.788574 837.388611,896.157898 832.194702,900.949402 
	C826.991455,905.749573 819.761841,905.453430 813.079102,899.894165 
z"/>
<path fill="#F0F0F0" opacity="1.000000" stroke="none" 
	d="
M301.119385,889.862305 
	C299.793182,889.023987 298.669678,888.319885 298.131714,887.305237 
	C297.719940,886.528687 298.047546,885.359863 298.047394,884.365479 
	C298.047028,881.575195 298.047241,878.784912 298.047241,875.624329 
	C301.328491,875.624329 304.281403,875.424683 307.196228,875.672852 
	C311.208252,876.014465 313.635712,878.407898 313.766388,882.442627 
	C313.899597,886.555725 311.268677,888.809387 307.511597,889.609009 
	C305.600922,890.015625 303.557434,889.798279 301.119385,889.862305 
z"/>
</svg>