<?xml version="1.0" encoding="UTF-8"?>
<svg version="1.1" xmlns="http://www.w3.org/2000/svg" width="1024" height="1024">
<path d="M0 0 C1.7421875 1.73046875 1.7421875 1.73046875 2.30859375 3.640625 C2.29041266 13.658406 -3.13104824 21.20554547 -9.2578125 28.73046875 C-9.71929688 29.33761719 -10.18078125 29.94476563 -10.65625 30.5703125 C-18.09426196 39.96028893 -28.4228671 43.57801847 -39.2578125 47.73046875 C-45.93058662 50.32136273 -50.88067125 52.45189531 -55.13671875 58.375 C-55.50667969 58.82230469 -55.87664062 59.26960938 -56.2578125 59.73046875 C-56.9178125 59.73046875 -57.5778125 59.73046875 -58.2578125 59.73046875 C-58.50273438 60.60703125 -58.74765625 61.48359375 -59 62.38671875 C-60.34876987 65.97226847 -61.98587454 68.25726348 -64.3828125 71.23046875 C-68.58060661 76.66607394 -72.01741015 82.24379896 -75.328125 88.25 C-76.62499619 90.58909359 -77.93524465 92.89014763 -79.3125 95.1796875 C-79.95445312 96.24832031 -80.59640625 97.31695312 -81.2578125 98.41796875 C-82.1240625 99.84689453 -82.1240625 99.84689453 -83.0078125 101.3046875 C-84.48684221 103.72011228 -84.48684221 103.72011228 -84.2578125 106.73046875 C-83.23042969 106.199375 -82.20304687 105.66828125 -81.14453125 105.12109375 C-68.90215388 98.85551994 -57.81515817 93.55512761 -43.8203125 93.54296875 C-43.08232422 93.53072266 -42.34433594 93.51847656 -41.58398438 93.50585938 C-37.07954628 93.49384754 -33.50156987 94.02893053 -29.2578125 95.73046875 C-28.37634223 101.57020927 -29.33270339 104.4496504 -32.7578125 109.29296875 C-34.22443061 111.1325849 -35.72318146 112.9471954 -37.2578125 114.73046875 C-37.81210937 115.39433594 -38.36640625 116.05820313 -38.9375 116.7421875 C-49.9166429 127.9996036 -68.4995777 130.333652 -83.30859375 130.953125 C-84.17105713 130.99066895 -85.03352051 131.02821289 -85.92211914 131.06689453 C-87.6147364 131.13305859 -89.30809199 131.18285403 -91.00170898 131.21435547 C-95.23748224 131.20377853 -95.23748224 131.20377853 -98.88623047 133.04516602 C-101.14323423 135.81841218 -102.58187985 139.03057946 -104.1328125 142.23046875 C-104.48287354 142.94154785 -104.83293457 143.65262695 -105.19360352 144.38525391 C-107.67116049 149.44533458 -110.05431887 154.54500168 -112.34765625 159.69140625 C-112.95470207 161.05139731 -113.59176741 162.39837857 -114.2578125 163.73046875 C-113.03964844 163.45332031 -111.82148437 163.17617188 -110.56640625 162.890625 C-108.94274062 162.52459633 -107.31904088 162.15871895 -105.6953125 161.79296875 C-104.49551758 161.51936523 -104.49551758 161.51936523 -103.27148438 161.24023438 C-87.34955943 157.66592469 -72.7439033 157.8499705 -58.0703125 165.60546875 C-57.13529907 166.09660156 -57.13529907 166.09660156 -56.18139648 166.59765625 C-52.32249472 168.76673291 -49.69459039 171.03369839 -47.2578125 174.73046875 C-46.76468263 178.11193069 -47.07390642 180.20327132 -48.1953125 183.41796875 C-53.69240202 189.58137215 -65.21027673 190.38455371 -73.05078125 190.921875 C-87.13756431 191.21990285 -102.83133947 186.86282292 -115.3984375 180.52734375 C-117.64584968 179.5641671 -119.85449604 179.14483366 -122.2578125 178.73046875 C-122.39316406 179.26671875 -122.52851562 179.80296875 -122.66796875 180.35546875 C-124.19994649 185.93296854 -126.22146163 191.14703555 -128.5703125 196.41796875 C-128.87582031 197.10681152 -129.18132812 197.7956543 -129.49609375 198.50537109 C-130.11765841 199.90616718 -130.73940273 201.30688357 -131.36132812 202.70751953 C-137.00482083 215.44226369 -140.81258131 228.25787927 -144.2578125 241.73046875 C-143.47019531 241.11300781 -142.68257812 240.49554688 -141.87109375 239.859375 C-136.08352553 235.34747431 -130.2485819 230.90755 -124.2578125 226.66796875 C-123.2265625 225.93449219 -122.1953125 225.20101562 -121.1328125 224.4453125 C-118.38315081 222.80522897 -116.40814929 222.10688767 -113.2578125 221.73046875 C-113.2578125 221.07046875 -113.2578125 220.41046875 -113.2578125 219.73046875 C-106.32040091 215.80627633 -100.1836577 214.94560421 -92.2578125 215.73046875 C-91.2578125 216.73046875 -91.2578125 216.73046875 -90.8203125 220.66796875 C-90.94392482 229.33456613 -97.20970929 236.34424698 -102.8671875 242.43359375 C-110.7327987 249.99074961 -119.06080816 255.76157484 -129.2578125 259.73046875 C-130.07765625 260.08625 -130.8975 260.44203125 -131.7421875 260.80859375 C-138.08186695 263.51406205 -144.5446286 265.20789096 -151.2578125 266.73046875 C-153.29676533 275.39922416 -154.78516297 283.83161891 -155.2578125 292.73046875 C-154.45601562 292.71886719 -153.65421875 292.70726562 -152.828125 292.6953125 C-126.27036697 292.48453664 -99.75424907 294.68297556 -76.70703125 309.203125 C-74.82186178 310.3787251 -72.88997182 311.47963944 -70.94140625 312.546875 C-66.86765157 314.86605111 -63.2627433 317.65021798 -59.6328125 320.60546875 C-58.94348633 321.1662915 -58.25416016 321.72711426 -57.54394531 322.30493164 C-48.76387212 329.609201 -40.20005485 337.89747248 -34.2578125 347.73046875 C-34.2578125 348.39046875 -34.2578125 349.05046875 -34.2578125 349.73046875 C-33.5978125 349.73046875 -32.9378125 349.73046875 -32.2578125 349.73046875 C-29.27152488 353.84825144 -26.79494106 358.32461229 -24.2578125 362.73046875 C-23.87608887 363.38853516 -23.49436523 364.04660156 -23.10107422 364.72460938 C-17.34982606 374.74994301 -13.27631421 384.74623083 -9.9128418 395.78857422 C-9.21181518 397.98405036 -9.21181518 397.98405036 -7.75390625 400.96484375 C-5.45109595 406.15208675 -4.7154782 411.80731205 -3.6953125 417.35546875 C-3.28185065 419.5776662 -2.86403781 421.7990595 -2.44140625 424.01953125 C-2.26150146 424.99615723 -2.08159668 425.9727832 -1.89624023 426.97900391 C-1.26085538 429.71735469 -0.30033587 432.12584977 0.7421875 434.73046875 C4.47352178 452.14154896 4.04128095 470.52810023 4.0546875 488.23046875 C4.05809143 489.29180023 4.06149536 490.35313171 4.06500244 491.44662476 C4.0963601 508.55486618 3.85341973 526.02496878 -0.2578125 542.73046875 C-0.46148438 543.60832031 -0.66515625 544.48617187 -0.875 545.390625 C-3.82920004 557.72192069 -7.16428397 570.09710111 -12.2578125 581.73046875 C-12.68126953 582.75720703 -12.68126953 582.75720703 -13.11328125 583.8046875 C-18.79742554 597.23316811 -26.15169316 610.34781958 -35.2578125 621.73046875 C-35.7528125 622.61734375 -36.2478125 623.50421875 -36.7578125 624.41796875 C-38.2578125 626.73046875 -38.2578125 626.73046875 -40.3203125 627.73046875 C-42.47621572 628.55808198 -42.47621572 628.55808198 -42.97265625 630.8671875 C-44.78660444 634.90859791 -47.60730736 637.48366244 -50.7578125 640.54296875 C-51.39074219 641.16461914 -52.02367187 641.78626953 -52.67578125 642.42675781 C-57.61600807 647.22418903 -62.71606395 651.63656442 -68.2578125 655.73046875 C-69.30195312 656.5296875 -70.34609375 657.32890625 -71.421875 658.15234375 C-79.85554248 664.49784725 -88.63743516 669.41372379 -98.2578125 673.73046875 C-99.20358154 674.15585938 -99.20358154 674.15585938 -100.16845703 674.58984375 C-113.49953445 680.47926998 -126.99570394 683.72416467 -141.44140625 685.3359375 C-144.15607813 685.42800992 -144.15607813 685.42800992 -145.2578125 686.73046875 C-146.75121444 686.82877437 -148.24921627 686.85845326 -149.74584961 686.85986328 C-151.17754738 686.86459152 -151.17754738 686.86459152 -152.63816833 686.86941528 C-153.67667435 686.86739105 -154.71518036 686.86536682 -155.78515625 686.86328125 C-157.37403404 686.86471634 -157.37403404 686.86471634 -158.99501038 686.86618042 C-161.24040791 686.86686245 -163.4858074 686.86500659 -165.73120117 686.86083984 C-169.1769655 686.8554972 -172.62259916 686.86078137 -176.06835938 686.8671875 C-178.24479196 686.86652662 -180.42122445 686.86524525 -182.59765625 686.86328125 C-183.63413803 686.86530548 -184.67061981 686.86732971 -185.73851013 686.86941528 C-186.69612747 686.86626312 -187.65374481 686.86311096 -188.64038086 686.85986328 C-189.48563828 686.85906769 -190.33089569 686.85827209 -191.20176697 686.85745239 C-193.2578125 686.73046875 -193.2578125 686.73046875 -195.2578125 685.73046875 C-197.39395308 685.48354927 -199.5361399 685.28827081 -201.6796875 685.1171875 C-203.01909278 685.00506943 -204.35844636 684.89233236 -205.69775391 684.77905273 C-206.40168274 684.72047089 -207.10561157 684.66188904 -207.83087158 684.60153198 C-218.58913086 683.6943779 -229.25771282 682.64143946 -239.8828125 680.66796875 C-241.19330566 680.42469849 -241.19330566 680.42469849 -242.53027344 680.17651367 C-246.91557662 679.31664175 -251.01916411 678.1578241 -255.2578125 676.73046875 C-258.64142247 675.88566769 -262.04453049 675.12775669 -265.4453125 674.35546875 C-272.95226038 672.60742507 -280.08511072 670.56743289 -287.2578125 667.73046875 C-290.83377622 666.46905737 -294.41458466 665.22212724 -297.99609375 663.9765625 C-301.21034789 662.74860194 -304.18656614 661.27618144 -307.2578125 659.73046875 C-309.33177549 658.91456961 -311.41557994 658.12330779 -313.5078125 657.35546875 C-319.30540165 655.16071436 -324.77020666 652.5992003 -330.2578125 649.73046875 C-331.19882812 649.26125 -332.13984375 648.79203125 -333.109375 648.30859375 C-343.84630504 642.92680748 -354.27931766 637.10160294 -364.50634766 630.80761719 C-366.21490351 629.75685772 -367.92964852 628.716183 -369.64453125 627.67578125 C-371.15466797 626.74378906 -371.15466797 626.74378906 -372.6953125 625.79296875 C-373.58089844 625.24769531 -374.46648438 624.70242188 -375.37890625 624.140625 C-376.30896484 623.44259766 -376.30896484 623.44259766 -377.2578125 622.73046875 C-377.2578125 622.07046875 -377.2578125 621.41046875 -377.2578125 620.73046875 C-377.9178125 620.52421875 -378.5778125 620.31796875 -379.2578125 620.10546875 C-383.33701191 618.23583569 -386.94854053 615.76912269 -390.2578125 612.73046875 C-391.44809717 609.15961473 -391.39562475 605.92681427 -391.38365364 602.21136284 C-391.38510708 601.43492575 -391.38656052 600.65848867 -391.38805801 599.85852319 C-391.39173133 597.23532385 -391.38822542 594.61218214 -391.38479614 591.98898315 C-391.38594743 590.09794781 -391.38753501 588.20691269 -391.38952339 586.31587803 C-391.39371557 581.10265986 -391.39162651 575.88945989 -391.38853717 570.67624164 C-391.38628288 565.06067958 -391.38976281 559.44512075 -391.39251709 553.82955933 C-391.39697329 542.82260148 -391.39599903 531.81565044 -391.39310445 520.80869232 C-391.39085006 511.86759978 -391.39053805 502.92650915 -391.39162827 493.98541641 C-391.3917815 492.71499616 -391.39193473 491.4445759 -391.39209261 490.13565806 C-391.39241232 487.55520239 -391.39273653 484.97474673 -391.3930652 482.39429106 C-391.39583806 458.86575176 -391.39295816 435.33721704 -391.3877226 411.80867856 C-391.38297565 390.31239179 -391.38340238 368.81611094 -391.38818359 347.31982422 C-391.39353337 323.1864283 -391.39564594 299.05303643 -391.39257133 274.91963971 C-391.39225276 272.34905632 -391.39193839 269.77847294 -391.39162827 267.20788956 C-391.39147399 265.94295273 -391.39131971 264.6780159 -391.39116076 263.37474766 C-391.3902954 254.43790953 -391.39175887 245.50107349 -391.39410782 236.56423569 C-391.39690493 225.68270983 -391.39616941 214.80119118 -391.39082707 203.91966616 C-391.38818901 198.36218611 -391.38718677 192.80471813 -391.39047623 187.24723816 C-391.39343698 182.16850302 -391.3918501 177.08979122 -391.38649867 172.01105823 C-391.38537355 170.16524752 -391.38596775 168.31943488 -391.38837446 166.47362541 C-391.3913766 163.9816856 -391.38833591 161.48982776 -391.38365364 158.99789238 C-391.38599481 158.26658672 -391.38833597 157.53528107 -391.39074808 156.78181463 C-391.37196288 151.84461913 -391.37196288 151.84461913 -390.2578125 150.73046875 C-381.67670314 149.75534269 -376.37005073 151.11575446 -369.2578125 155.73046875 C-365.97488699 157.50380971 -362.62654455 159.12699036 -359.2578125 160.73046875 C-358.24203125 161.21644531 -357.22625 161.70242188 -356.1796875 162.203125 C-347.16979728 166.29948207 -338.06757128 168.85257293 -328.4609375 171.13964844 C-326.2578125 171.73046875 -326.2578125 171.73046875 -323.55761719 172.70581055 C-319.47436369 173.97374595 -315.43502254 174.59328934 -311.2109375 175.203125 C-310.35852478 175.3310997 -309.50611206 175.4590744 -308.62786865 175.59092712 C-305.92190921 175.99667219 -303.21498344 176.39539365 -300.5078125 176.79296875 C-297.78647447 177.19480445 -295.0654037 177.59820996 -292.34490967 178.00572205 C-290.65601427 178.25851919 -288.96661014 178.50794504 -287.27667236 178.75367737 C-281.48218651 179.61828174 -281.48218651 179.61828174 -279.2578125 180.73046875 C-277.6267143 180.85922536 -275.99105276 180.93269287 -274.35546875 180.9765625 C-272.89657227 181.02586914 -272.89657227 181.02586914 -271.40820312 181.07617188 C-269.35362471 181.13725042 -267.29893061 181.1945571 -265.24414062 181.24804688 C-264.27025391 181.28220703 -263.29636719 181.31636719 -262.29296875 181.3515625 C-261.399729 181.37661865 -260.50648926 181.4016748 -259.58618164 181.42749023 C-257.2578125 181.73046875 -257.2578125 181.73046875 -254.2578125 183.73046875 C-254.31841189 185.46058132 -254.40735901 187.18971214 -254.5078125 188.91796875 C-254.55421875 189.88089844 -254.600625 190.84382812 -254.6484375 191.8359375 C-255.3997476 195.40466049 -256.8609896 197.01724789 -259.2578125 199.73046875 C-279.15753978 227.51586885 -277.32854434 266.4883706 -277.51817322 299.09866142 C-277.53952443 302.74290458 -277.56650431 306.38707016 -277.59484863 310.03126526 C-277.66401644 319.0602316 -277.72430593 328.08925206 -277.78387451 337.11828613 C-277.83477218 344.79707146 -277.88950679 352.47580931 -277.94969177 360.15452766 C-277.97624311 363.74586205 -277.99705218 367.33720114 -278.0177002 370.92857361 C-278.03429226 373.11441265 -278.05116313 375.30024961 -278.06835938 377.48608398 C-278.07254379 378.48495132 -278.07672821 379.48381866 -278.08103943 380.51295471 C-278.08938309 381.42503693 -278.09772675 382.33711914 -278.10632324 383.27684021 C-278.11147697 384.06924827 -278.11663071 384.86165632 -278.12194061 385.67807674 C-278.2578125 387.73046875 -278.2578125 387.73046875 -279.2578125 390.73046875 C-278.2678125 390.73046875 -277.2778125 390.73046875 -276.2578125 390.73046875 C-275.9278125 388.09046875 -275.5978125 385.45046875 -275.2578125 382.73046875 C-274.5978125 382.73046875 -273.9378125 382.73046875 -273.2578125 382.73046875 C-273.1959375 381.84359375 -273.1340625 380.95671875 -273.0703125 380.04296875 C-269.74729587 357.46466397 -251.1778232 334.91724695 -234.2578125 320.73046875 C-233.41992188 320.01761719 -232.58203125 319.30476563 -231.71875 318.5703125 C-226.51213517 314.25833273 -221.2820139 310.77898517 -215.2578125 307.73046875 C-214.50113281 307.32183594 -213.74445313 306.91320312 -212.96484375 306.4921875 C-196.66695479 297.90455596 -179.35394915 294.72809422 -161.2578125 292.73046875 C-166.35481233 287.31424811 -166.35481233 287.31424811 -172.2578125 282.85546875 C-186.41690504 272.82611154 -195.28693071 252.21908265 -199.2578125 235.73046875 C-199.55859375 232.30859375 -199.55859375 232.30859375 -199.5703125 228.98046875 C-199.58707031 227.871875 -199.60382813 226.76328125 -199.62109375 225.62109375 C-199.2578125 222.73046875 -199.2578125 222.73046875 -198.11328125 220.83984375 C-195.31595559 219.16733746 -193.46329569 219.29988146 -190.2578125 219.73046875 C-187.5546875 221.33984375 -187.5546875 221.33984375 -185.0078125 223.48046875 C-184.15703125 224.1765625 -183.30625 224.87265625 -182.4296875 225.58984375 C-180.2578125 227.73046875 -180.2578125 227.73046875 -179.2109375 229.87109375 C-178.41735004 231.88571136 -178.41735004 231.88571136 -176.40625 232.6015625 C-173.26567042 234.25179432 -171.7394615 236.87623954 -169.8828125 239.79296875 C-169.29898804 240.70006592 -169.29898804 240.70006592 -168.70336914 241.62548828 C-164.27758178 248.83781489 -161.74131059 256.68588277 -159.2578125 264.73046875 C-159.05027344 263.85390625 -158.84273437 262.97734375 -158.62890625 262.07421875 C-156.51037941 253.35191577 -154.15058562 244.72135262 -151.6328125 236.10546875 C-151.33173584 235.07486328 -151.03065918 234.04425781 -150.72045898 232.98242188 C-149.56660741 229.06234691 -148.41887309 225.17671942 -147.03125 221.33203125 C-146.19940479 218.53400644 -146.15666505 216.6135741 -146.5078125 213.73046875 C-146.59546875 212.92609375 -146.683125 212.12171875 -146.7734375 211.29296875 C-147.33436132 208.32550079 -148.24939529 205.57387466 -149.2578125 202.73046875 C-150.03382813 202.87484375 -150.80984375 203.01921875 -151.609375 203.16796875 C-169.70003696 206.27662665 -185.17235966 204.7744556 -201.4453125 196.35546875 C-202.15212158 195.99267822 -202.85893066 195.6298877 -203.5871582 195.25610352 C-208.22388009 192.71230369 -211.23316279 190.09361287 -214.2578125 185.73046875 C-214.78797336 181.26197009 -214.77031833 179.4992275 -212.2578125 175.73046875 C-200.48274947 170.49309409 -185.70244414 168.67837516 -173.3828125 172.98046875 C-169.24232847 174.63173321 -165.30376314 176.67229961 -161.359375 178.7421875 C-159.34322488 179.87232009 -159.34322488 179.87232009 -157.2578125 179.73046875 C-159.98250476 173.92739821 -162.97695566 168.3006761 -166.2578125 162.79296875 C-166.8971875 161.71144531 -167.5365625 160.62992188 -168.1953125 159.515625 C-171.22180083 155.42871935 -174.22288854 154.09883151 -178.9453125 152.41796875 C-184.05921327 150.57970231 -188.8797393 147.95122342 -193.2578125 144.73046875 C-193.2578125 144.07046875 -193.2578125 143.41046875 -193.2578125 142.73046875 C-193.9178125 142.73046875 -194.5778125 142.73046875 -195.2578125 142.73046875 C-196.765625 141.05078125 -196.765625 141.05078125 -198.3828125 138.85546875 C-198.92164063 138.13617188 -199.46046875 137.416875 -200.015625 136.67578125 C-201.2578125 134.73046875 -201.2578125 134.73046875 -201.2578125 132.73046875 C-201.9178125 132.73046875 -202.5778125 132.73046875 -203.2578125 132.73046875 C-206.39329259 126.43557361 -208.79912905 120.59852179 -209.8984375 113.62890625 C-210.07394604 111.72658585 -210.07394604 111.72658585 -211.2578125 110.73046875 C-211.40990409 108.79715066 -211.47967581 106.85705591 -211.5078125 104.91796875 C-211.54648437 103.33048828 -211.54648437 103.33048828 -211.5859375 101.7109375 C-211.21739646 98.36335641 -210.72130538 97.00987645 -208.2578125 94.73046875 C-202.69012317 93.38552071 -197.22216854 94.52626406 -192.328125 97.33984375 C-182.26229876 104.10104024 -175.02649378 111.51920174 -170.2578125 122.73046875 C-170.01063477 123.30361816 -169.76345703 123.87676758 -169.50878906 124.46728516 C-167.50768347 129.38556336 -166.76385612 133.83717894 -166.3828125 139.10546875 C-165.58963943 147.60242793 -162.98523012 153.63934233 -158.2578125 160.73046875 C-156.44346931 158.91612556 -156.51838527 155.98971762 -156.0703125 153.54296875 C-153.54718177 141.56114504 -148.67295077 131.45805993 -141.2578125 121.73046875 C-140.2678125 120.24546875 -140.2678125 120.24546875 -139.2578125 118.73046875 C-138.5978125 118.73046875 -137.9378125 118.73046875 -137.2578125 118.73046875 C-137.0721875 117.98796875 -136.8865625 117.24546875 -136.6953125 116.48046875 C-134.7255591 112.71224486 -132.16215467 111.263719 -128.2578125 109.73046875 C-125.3203125 109.48046875 -125.3203125 109.48046875 -123.2578125 109.73046875 C-119.57115223 117.10378929 -120.50176968 130.83941439 -122.53515625 138.609375 C-126.86415552 151.31557287 -134.9049297 162.14134876 -144.203125 171.73828125 C-147.58175189 175.22664244 -147.58175189 175.22664244 -148.4453125 179.91796875 C-147.06459983 184.35078311 -145.3257081 188.53666482 -143.4140625 192.765625 C-142.24168355 195.77182643 -141.67509587 198.53919931 -141.2578125 201.73046875 C-140.5978125 201.73046875 -139.9378125 201.73046875 -139.2578125 201.73046875 C-138.1613822 199.01744121 -137.09540252 196.29808546 -136.06640625 193.55859375 C-133.37193897 186.52687857 -130.38512948 179.89450361 -126.7578125 173.29296875 C-123.3845299 167.14412065 -120.70539293 161.01160658 -118.35546875 154.40966797 C-115.1180159 145.38301991 -110.50848707 137.09504697 -105.89453125 128.71484375 C-101.26504674 120.27349253 -96.71894643 111.78966406 -92.48828125 103.140625 C-90.59860876 99.4392665 -88.4964555 95.85782721 -86.39453125 92.2734375 C-84.64490908 88.35933429 -84.92047623 85.74247757 -86.2578125 81.73046875 C-86.9178125 81.73046875 -87.5778125 81.73046875 -88.2578125 81.73046875 C-89.65493524 79.77449691 -90.97708879 77.76455935 -92.2578125 75.73046875 C-92.8971875 74.82296875 -93.5365625 73.91546875 -94.1953125 72.98046875 C-99.72983905 64.25939661 -102.54681392 55.63999986 -104.80371094 45.64208984 C-105.44173222 42.95622606 -106.24196314 40.31981164 -107.0078125 37.66796875 C-108.94354624 29.83947651 -110.43980587 19.79241805 -106.4453125 12.41796875 C-103.66356922 9.00039843 -102.05750396 7.8707655 -97.6953125 7.10546875 C-91.51388801 7.27622633 -87.42645828 11.5688291 -83.2578125 15.73046875 C-73.04778581 27.16391912 -70.33771889 44.72865464 -70.0703125 59.54296875 C-70.2578125 62.73046875 -70.2578125 62.73046875 -71.2578125 64.73046875 C-63.56562074 57.38290924 -56.60189557 48.89907377 -54.23046875 38.39453125 C-52.8225371 34.53826866 -50.57675776 31.42748482 -48.1953125 28.10546875 C-47.74671875 27.47640625 -47.298125 26.84734375 -46.8359375 26.19921875 C-45.70082933 24.66528879 -44.4852321 23.1915823 -43.2578125 21.73046875 C-42.5978125 21.73046875 -41.9378125 21.73046875 -41.2578125 21.73046875 C-41.01160156 20.99699219 -40.76539063 20.26351562 -40.51171875 19.5078125 C-36.43449309 10.47694819 -25.89690279 3.30106366 -16.8203125 -0.14453125 C-11.41985693 -1.73624447 -5.07789044 -2.85521522 0 0 Z M-229.36328125 363.5 C-247.1851988 384.48209262 -258.37892482 410.83951053 -264.68066406 437.43261719 C-265.07492211 439.00231124 -265.50580609 440.56314047 -265.96777344 442.11425781 C-268.5221307 450.73235177 -269.66958775 459.4727971 -270.8828125 468.35546875 C-271.20597124 470.69692693 -271.53120181 473.03803609 -271.86141968 475.37850952 C-272.06501373 476.823561 -272.26440156 478.26921271 -272.45913696 479.71548462 C-273.14575663 484.61841288 -273.14575663 484.61841288 -274.2578125 485.73046875 C-274.5497675 488.15724912 -274.78243658 490.5648022 -274.9765625 493 C-275.03913742 493.7431395 -275.10171234 494.48627899 -275.16618347 495.25193787 C-275.36883953 497.68186878 -275.56402902 500.11231506 -275.7578125 502.54296875 C-275.82473297 503.37123169 -275.89165344 504.19949463 -275.96060181 505.05285645 C-277.45568276 523.37183843 -277.45568276 523.37183843 -278.2578125 541.73046875 C-278.30663574 543.54804687 -278.30663574 543.54804687 -278.35644531 545.40234375 C-279.06371243 571.73008899 -279.06371243 571.73008899 -271.25 596.6640625 C-270.14960309 598.95583401 -269.27329367 601.2872195 -268.3828125 603.66796875 C-266.25579007 609.06539326 -263.34256169 613.83600004 -260.2578125 618.73046875 C-259.78601563 619.53226563 -259.31421875 620.3340625 -258.828125 621.16015625 C-257.0645749 624.04676313 -255.1648854 626.79292957 -253.1953125 629.54296875 C-252.50308594 630.51878906 -251.81085938 631.49460937 -251.09765625 632.5 C-250.49050781 633.23605469 -249.88335938 633.97210937 -249.2578125 634.73046875 C-248.5978125 634.73046875 -247.9378125 634.73046875 -247.2578125 634.73046875 C-246.85369141 635.61992188 -246.85369141 635.61992188 -246.44140625 636.52734375 C-239.46656522 649.51021616 -222.03427983 657.46918592 -208.8671875 662.67578125 C-194.64849276 666.65029828 -178.69856234 664.04955528 -165.9934082 657.24804688 C-153.09927139 649.89756245 -143.0263526 638.20362092 -135.2578125 625.73046875 C-134.67902344 624.82425781 -134.10023438 623.91804688 -133.50390625 622.984375 C-128.89662917 615.49133042 -123.2578125 605.77583703 -123.2578125 596.73046875 C-122.5978125 596.73046875 -121.9378125 596.73046875 -121.2578125 596.73046875 C-121.08652832 595.91892334 -120.91524414 595.10737793 -120.73876953 594.27124023 C-120.09588515 591.23110469 -119.45077369 588.19145231 -118.80419922 585.15209961 C-118.38990588 583.20136847 -117.97813398 581.25010238 -117.56640625 579.29882812 C-117.17001953 577.43774414 -117.17001953 577.43774414 -116.765625 575.5390625 C-116.52473145 574.40267334 -116.28383789 573.26628418 -116.03564453 572.09545898 C-115.500475 569.78025446 -114.8893275 567.48173324 -114.21679688 565.20263672 C-112.6068658 559.37360421 -112.17598336 553.42469734 -111.6328125 547.41796875 C-111.56744293 546.70237793 -111.50207336 545.98678711 -111.4347229 545.24951172 C-108.72835183 514.48040582 -108.55381802 482.42944689 -112.2578125 451.73046875 C-112.3417627 451.02196777 -112.42571289 450.3134668 -112.51220703 449.58349609 C-112.71395822 446.37451413 -112.71395822 446.37451413 -114.2578125 443.73046875 C-114.68695689 441.65652338 -115.06493282 439.57195891 -115.421875 437.484375 C-115.65415853 436.16717314 -115.88777323 434.85020549 -116.12255859 433.53344727 C-116.24588562 432.84082794 -116.36921265 432.14820862 -116.49627686 431.43460083 C-118.81509657 418.58699217 -121.68047855 406.59487162 -127.2578125 394.73046875 C-127.55913086 394.05564453 -127.86044922 393.38082031 -128.17089844 392.68554688 C-132.87795057 382.15569693 -138.75445077 372.52228653 -146.2578125 363.73046875 C-146.9178125 363.73046875 -147.5778125 363.73046875 -148.2578125 363.73046875 C-148.4846875 363.15296875 -148.7115625 362.57546875 -148.9453125 361.98046875 C-153.47773628 354.21059941 -165.08619658 348.99549616 -173.4453125 346.79296875 C-194.47881164 342.7276706 -214.48623964 347.46370839 -229.36328125 363.5 Z " fill="#050505" transform="translate(954.2578125,107.26953125)"/>
<path d="M0 0 C1.73624634 0.03806763 1.73624634 0.03806763 3.50756836 0.0769043 C4.38292236 0.10953369 5.25827637 0.14216309 6.16015625 0.17578125 C6.16151278 1.06725658 6.16286931 1.95873191 6.16426694 2.87722164 C6.24495173 55.73653147 6.33592057 108.5958151 6.44020786 161.45508391 C6.45272643 167.80477259 6.46515925 174.15446144 6.47753906 180.50415039 C6.48123805 182.4002794 6.48123805 182.4002794 6.48501177 184.33471405 C6.52471399 204.79112963 6.55747256 225.24755071 6.58765607 245.7039823 C6.61879186 266.70083167 6.65741038 287.69765771 6.70294631 308.69448084 C6.7307997 321.64615267 6.7528464 334.59780748 6.76741876 347.54950117 C6.77797699 356.43610411 6.79581651 365.32267403 6.81932329 374.20925207 C6.83266348 379.33301882 6.84284939 384.4567394 6.84436989 389.58052444 C6.84583551 394.27958157 6.85652841 398.97852766 6.87429066 403.67755061 C6.87910591 405.36959003 6.88065272 407.06164292 6.87843506 408.75368775 C6.85915585 426.36590058 6.89216435 445.28516918 19.16015625 459.17578125 C22.99745903 462.65358112 26.51344531 464.44583306 31.72265625 464.67578125 C37.46185792 464.30041178 41.62907487 462.67040831 45.78515625 458.61328125 C50.11358985 452.88489222 53.17205739 446.04375913 55.16015625 439.17578125 C57.11886055 439.3165444 59.07711718 439.46354885 61.03515625 439.61328125 C62.12570312 439.69449219 63.21625 439.77570313 64.33984375 439.859375 C67.16015625 440.17578125 67.16015625 440.17578125 69.16015625 441.17578125 C69.20257348 443.508729 69.20108562 445.84280692 69.16015625 448.17578125 C68.83015625 448.50578125 68.50015625 448.83578125 68.16015625 449.17578125 C67.82771997 451.23392177 67.50161035 453.29331642 67.21020508 455.35766602 C64.59028097 473.91590282 58.78356287 493.12683666 47.16015625 508.17578125 C46.55558594 509.00335937 45.95101563 509.8309375 45.328125 510.68359375 C37.40530555 521.15359184 26.09924432 529.88345101 13.16015625 533.17578125 C9.49912495 533.6758956 5.84917478 533.97912401 2.16015625 534.17578125 C2.16015625 534.83578125 2.16015625 535.49578125 2.16015625 536.17578125 C-2.23232555 536.22566529 -6.62465199 536.26172706 -11.01733398 536.28564453 C-12.50792315 536.29562795 -13.99849311 536.30921947 -15.48901367 536.32666016 C-23.52950449 536.41830504 -31.03199282 536.36578822 -38.83984375 534.17578125 C-39.90332031 533.94117188 -40.96679688 533.7065625 -42.0625 533.46484375 C-48.15895585 532.0392626 -53.4287781 530.31803394 -58.83984375 527.17578125 C-59.6184375 526.74394531 -60.39703125 526.31210937 -61.19921875 525.8671875 C-83.01014214 513.36993481 -94.42513775 494.59391702 -100.96044922 470.84082031 C-103.60448665 460.6863731 -105.20278329 450.70102782 -104.83984375 440.17578125 C-105.82984375 440.17578125 -106.81984375 440.17578125 -107.83984375 440.17578125 C-108.01 440.85382813 -108.18015625 441.531875 -108.35546875 442.23046875 C-116.22289369 472.44472836 -136.92751833 500.21692928 -163.40625 516.78125 C-166.17403074 518.35740606 -168.97457626 519.78387751 -171.83984375 521.17578125 C-172.49227051 521.49434082 -173.14469727 521.81290039 -173.81689453 522.14111328 C-188.49087103 529.22337968 -202.61302619 533.1034214 -218.8046875 534.78125 C-221.71287373 534.84545803 -221.71287373 534.84545803 -222.83984375 536.17578125 C-225.71248431 536.27684999 -228.56058003 536.31547797 -231.43359375 536.30859375 C-232.29545288 536.30955048 -233.15731201 536.3105072 -234.04528809 536.31149292 C-235.87117587 536.31217475 -237.69706606 536.31032029 -239.52294922 536.30615234 C-242.32785453 536.30080411 -245.1325997 536.30609724 -247.9375 536.3125 C-249.70703161 536.31183922 -251.47656311 536.31055806 -253.24609375 536.30859375 C-254.0908728 536.31061798 -254.93565186 536.31264221 -255.80603027 536.31472778 C-261.72489344 536.29073156 -261.72489344 536.29073156 -262.83984375 535.17578125 C-264.50065242 534.87862353 -266.17108387 534.63491577 -267.84375 534.4140625 C-280.55640392 532.63246518 -292.12715811 530.49089808 -303.83984375 525.17578125 C-305.19335938 524.57443359 -305.19335938 524.57443359 -306.57421875 523.9609375 C-317.52016934 518.78426978 -328.62525281 512.04234586 -337.83984375 504.17578125 C-337.83984375 503.51578125 -337.83984375 502.85578125 -337.83984375 502.17578125 C-338.42862305 501.91152344 -339.01740234 501.64726563 -339.62402344 501.375 C-341.92056959 500.13209181 -343.44817541 498.82571644 -345.29296875 496.98828125 C-345.91171875 496.37210938 -346.53046875 495.7559375 -347.16796875 495.12109375 C-347.8021875 494.47914063 -348.43640625 493.8371875 -349.08984375 493.17578125 C-349.73953125 492.53382813 -350.38921875 491.891875 -351.05859375 491.23046875 C-351.6721875 490.61429688 -352.28578125 489.998125 -352.91796875 489.36328125 C-353.4790332 488.79996094 -354.04009766 488.23664063 -354.61816406 487.65625 C-355.83984375 486.17578125 -355.83984375 486.17578125 -355.83984375 484.17578125 C-356.82984375 483.84578125 -357.81984375 483.51578125 -358.83984375 483.17578125 C-360.2265625 481.6171875 -360.2265625 481.6171875 -361.52734375 479.73828125 C-361.96433594 479.12082031 -362.40132812 478.50335937 -362.8515625 477.8671875 C-363.83984375 476.17578125 -363.83984375 476.17578125 -363.83984375 474.17578125 C-364.49984375 474.17578125 -365.15984375 474.17578125 -365.83984375 474.17578125 C-380.09896672 454.70928249 -390.78231278 430.34382929 -396.01171875 406.8828125 C-396.5559195 404.44674403 -397.16903619 402.02487383 -397.85546875 399.625 C-407.70375419 364.82527495 -411.01969571 308.16790053 -396.92578125 273.95703125 C-395.63462561 270.65018659 -394.72303823 267.30122074 -393.78564453 263.87963867 C-391.35992471 255.03036908 -388.79565591 246.48080125 -384.83984375 238.17578125 C-384.38689941 237.21865234 -384.38689941 237.21865234 -383.92480469 236.2421875 C-382.90910435 234.10951466 -381.8782447 231.98498828 -380.83984375 229.86328125 C-380.51967285 229.20481201 -380.19950195 228.54634277 -379.86962891 227.86791992 C-377.8814851 223.90016297 -375.64887453 220.33859194 -372.96386719 216.80297852 C-371.77064689 215.07560813 -370.93141892 213.34599134 -370.08984375 211.42578125 C-367.32236818 205.6443343 -362.99691254 200.99741546 -358.83984375 196.17578125 C-357.91945313 195.10457031 -357.91945313 195.10457031 -356.98046875 194.01171875 C-355.85397258 192.71469793 -354.71993906 191.4241815 -353.578125 190.140625 C-352.34978297 188.75218446 -351.14055222 187.34672429 -349.9453125 185.9296875 C-346.0773231 181.40558945 -342.14971625 177.58046574 -337.359375 174.046875 C-335.53046976 172.68866475 -333.74055337 171.27745255 -331.9765625 169.8359375 C-314.08929942 155.25102582 -292.60014856 146.57443609 -269.79101562 143.45214844 C-267.95263686 143.19175745 -266.12220971 142.87689779 -264.29296875 142.55859375 C-252.77944141 140.69084376 -237.01668861 138.4501663 -225.83984375 142.17578125 C-223.89133978 142.38536474 -221.94230248 142.59133224 -219.99072266 142.77001953 C-194.02725777 145.19342083 -169.15977734 154.00649149 -150.00390625 172.1328125 C-148.15337459 173.87979456 -146.26525078 175.46680967 -144.27734375 177.05078125 C-139.46108892 181.14005421 -135.71458449 186.21839237 -131.83984375 191.17578125 C-131.03546875 192.18125 -131.03546875 192.18125 -130.21484375 193.20703125 C-120.59446896 205.54620761 -113.33277756 219.57103959 -107.83984375 234.17578125 C-106.86926861 231.26405582 -106.72374329 229.46566222 -106.74409485 226.4405365 C-106.74824402 225.46640808 -106.75239319 224.49227966 -106.75666809 223.4886322 C-106.76647202 222.42109207 -106.77627594 221.35355194 -106.78637695 220.25366211 C-106.79277191 219.1281192 -106.79916687 218.00257629 -106.80575562 216.84292603 C-106.82860087 213.10876679 -106.85920236 209.37472129 -106.890625 205.640625 C-106.90985605 203.04570135 -106.92891189 200.45077639 -106.94779968 197.85585022 C-106.98883478 192.40752569 -107.03400576 186.95925525 -107.08178711 181.51098633 C-107.13672228 175.23265033 -107.18079745 168.95430328 -107.21963817 162.6758489 C-107.25760953 156.6214959 -107.30629407 150.56727808 -107.35896873 144.51303291 C-107.37996075 141.94514847 -107.39787873 139.37723693 -107.41262245 136.80930901 C-107.43431011 133.20728173 -107.46824113 129.6055616 -107.50512695 126.00366211 C-107.50885818 124.9502916 -107.51258942 123.89692108 -107.51643372 122.81163025 C-107.58842576 117.13690908 -108.10296606 111.86818243 -109.36261272 106.32968998 C-110.07879466 103.09731312 -110.41390873 99.83900289 -110.77734375 96.55078125 C-112.30911887 83.77733451 -114.21115272 71.89944541 -119.83984375 60.17578125 C-120.25492187 59.26828125 -120.67 58.36078125 -121.09765625 57.42578125 C-122.92413575 53.56605098 -124.60245874 50.24901065 -127.58984375 47.17578125 C-130.65984293 43.08244901 -130.96694888 39.22367056 -130.83984375 34.17578125 C-130.50984375 33.51578125 -130.17984375 32.85578125 -129.83984375 32.17578125 C-127.64672852 31.78100586 -127.64672852 31.78100586 -124.78125 31.578125 C-123.24307617 31.45920898 -123.24307617 31.45920898 -121.67382812 31.33789062 C-120.59423828 31.26376953 -119.51464844 31.18964844 -118.40234375 31.11328125 C-116.27838413 30.95929736 -114.15466737 30.80191408 -112.03125 30.640625 C-111.08451416 30.57480225 -110.13777832 30.50897949 -109.16235352 30.44116211 C-106.81804728 30.30770871 -106.81804728 30.30770871 -104.83984375 29.17578125 C-102.0645978 28.77448655 -99.2952171 28.41572358 -96.51171875 28.08203125 C-71.07628369 24.8697838 -45.77976193 21.3985948 -22.83984375 9.17578125 C-21.35484375 8.46421875 -21.35484375 8.46421875 -19.83984375 7.73828125 C-16.91280376 6.30154201 -16.91280376 6.30154201 -14.7109375 4.66015625 C-9.65638438 1.18768637 -6.20695289 -0.1771166 0 0 Z M-250.7734375 213.7578125 C-262.05178414 226.95497048 -269.70618412 241.00834789 -275.83984375 257.17578125 C-276.21109375 258.08396606 -276.21109375 258.08396606 -276.58984375 259.01049805 C-278.8775128 264.73920262 -280.17868136 270.59134193 -281.46484375 276.61328125 C-281.89127067 278.59185138 -282.32078559 280.56975939 -282.75390625 282.546875 C-282.93904785 283.4123999 -283.12418945 284.2779248 -283.31494141 285.16967773 C-283.83984375 287.17578125 -283.83984375 287.17578125 -284.83984375 288.17578125 C-291.31830119 327.42474091 -289.98640895 369.84740998 -279.83984375 408.17578125 C-279.66195312 408.87123047 -279.4840625 409.56667969 -279.30078125 410.28320312 C-274.23252059 429.89049967 -264.22886407 448.07850662 -250.83984375 463.17578125 C-250.1540625 463.95695312 -249.46828125 464.738125 -248.76171875 465.54296875 C-236.8895114 478.25062773 -220.53453117 487.05458242 -203.02490234 487.83325195 C-188.43847531 487.99638439 -174.82333181 484.80125892 -162.83984375 476.17578125 C-162.13601563 475.67949219 -161.4321875 475.18320312 -160.70703125 474.671875 C-158.7108065 473.21835013 -156.77028645 471.71529923 -154.83984375 470.17578125 C-153.92912109 469.46808594 -153.92912109 469.46808594 -153 468.74609375 C-146.36435447 463.37368928 -141.90305416 456.46583097 -137.2734375 449.37109375 C-136.3904003 448.01886785 -135.49017217 446.67747251 -134.5625 445.35546875 C-130.88028112 439.92037252 -128.60718527 433.9548879 -126.26953125 427.859375 C-125.35773819 425.5101377 -124.38030212 423.18463619 -123.3203125 420.8984375 C-121.27645002 416.18045534 -120.34465291 411.18573716 -119.27734375 406.17578125 C-118.86120662 404.25871608 -118.44327694 402.34203902 -118.0234375 400.42578125 C-117.82395508 399.51231934 -117.62447266 398.59885742 -117.41894531 397.65771484 C-116.9522036 395.65733698 -116.38581561 393.68035772 -115.7890625 391.71484375 C-106.11787599 355.65683971 -108.61442132 307.72878846 -118.83984375 272.17578125 C-119.24976563 270.396875 -119.24976563 270.396875 -119.66796875 268.58203125 C-123.02552831 254.29714149 -129.31606073 241.01660084 -136.77734375 228.42578125 C-137.15463623 227.78769531 -137.53192871 227.14960938 -137.9206543 226.4921875 C-138.83211017 225.01358968 -139.82803613 223.58760584 -140.83984375 222.17578125 C-141.49984375 222.17578125 -142.15984375 222.17578125 -142.83984375 222.17578125 C-143.21109375 221.34046875 -143.21109375 221.34046875 -143.58984375 220.48828125 C-150.51490423 207.67691937 -165.48760397 198.73466619 -178.83984375 194.17578125 C-205.24931019 186.38717995 -231.80211484 193.91515561 -250.7734375 213.7578125 Z " fill="#070707" transform="translate(468.83984375,257.82421875)"/>
<path d="M0 0 C1.7421875 1.73046875 1.7421875 1.73046875 2.30859375 3.640625 C2.29041266 13.658406 -3.13104824 21.20554547 -9.2578125 28.73046875 C-9.71929688 29.33761719 -10.18078125 29.94476563 -10.65625 30.5703125 C-18.09426196 39.96028893 -28.4228671 43.57801847 -39.2578125 47.73046875 C-45.93058662 50.32136273 -50.88067125 52.45189531 -55.13671875 58.375 C-55.50667969 58.82230469 -55.87664062 59.26960938 -56.2578125 59.73046875 C-56.9178125 59.73046875 -57.5778125 59.73046875 -58.2578125 59.73046875 C-58.50273438 60.60703125 -58.74765625 61.48359375 -59 62.38671875 C-60.34876987 65.97226847 -61.98587454 68.25726348 -64.3828125 71.23046875 C-68.58060661 76.66607394 -72.01741015 82.24379896 -75.328125 88.25 C-76.62499619 90.58909359 -77.93524465 92.89014763 -79.3125 95.1796875 C-79.95445312 96.24832031 -80.59640625 97.31695312 -81.2578125 98.41796875 C-81.8353125 99.37058594 -82.4128125 100.32320313 -83.0078125 101.3046875 C-84.48684221 103.72011228 -84.48684221 103.72011228 -84.2578125 106.73046875 C-83.23042969 106.199375 -82.20304688 105.66828125 -81.14453125 105.12109375 C-68.90215388 98.85551994 -57.81515817 93.55512761 -43.8203125 93.54296875 C-43.08232422 93.53072266 -42.34433594 93.51847656 -41.58398438 93.50585938 C-37.07954628 93.49384754 -33.50156987 94.02893053 -29.2578125 95.73046875 C-28.37634223 101.57020927 -29.33270339 104.4496504 -32.7578125 109.29296875 C-34.22443061 111.1325849 -35.72318146 112.9471954 -37.2578125 114.73046875 C-38.08925781 115.72626953 -38.08925781 115.72626953 -38.9375 116.7421875 C-49.9166429 127.9996036 -68.4995777 130.333652 -83.30859375 130.953125 C-84.17105713 130.99066895 -85.03352051 131.02821289 -85.92211914 131.06689453 C-87.6147364 131.13305859 -89.30809199 131.18285403 -91.00170898 131.21435547 C-95.23748224 131.20377853 -95.23748224 131.20377853 -98.88623047 133.04516602 C-101.14323423 135.81841218 -102.58187985 139.03057946 -104.1328125 142.23046875 C-104.48287354 142.94154785 -104.83293457 143.65262695 -105.19360352 144.38525391 C-107.67116049 149.44533458 -110.05431887 154.54500168 -112.34765625 159.69140625 C-112.95470207 161.05139731 -113.59176741 162.39837857 -114.2578125 163.73046875 C-113.03964844 163.45332031 -111.82148437 163.17617188 -110.56640625 162.890625 C-108.94274062 162.52459633 -107.31904088 162.15871895 -105.6953125 161.79296875 C-104.49551758 161.51936523 -104.49551758 161.51936523 -103.27148438 161.24023438 C-87.34955943 157.66592469 -72.7439033 157.8499705 -58.0703125 165.60546875 C-57.44697021 165.93289063 -56.82362793 166.2603125 -56.18139648 166.59765625 C-52.32249472 168.76673291 -49.69459039 171.03369839 -47.2578125 174.73046875 C-46.76468263 178.11193069 -47.07390642 180.20327132 -48.1953125 183.41796875 C-53.69240202 189.58137215 -65.21027673 190.38455371 -73.05078125 190.921875 C-87.13756431 191.21990285 -102.83133947 186.86282292 -115.3984375 180.52734375 C-117.64584968 179.5641671 -119.85449604 179.14483366 -122.2578125 178.73046875 C-122.39316406 179.26671875 -122.52851562 179.80296875 -122.66796875 180.35546875 C-124.19994649 185.93296854 -126.22146163 191.14703555 -128.5703125 196.41796875 C-128.87582031 197.10681152 -129.18132812 197.7956543 -129.49609375 198.50537109 C-130.11765841 199.90616718 -130.73940273 201.30688357 -131.36132812 202.70751953 C-137.00482083 215.44226369 -140.81258131 228.25787927 -144.2578125 241.73046875 C-143.47019531 241.11300781 -142.68257812 240.49554688 -141.87109375 239.859375 C-136.08352553 235.34747431 -130.2485819 230.90755 -124.2578125 226.66796875 C-123.2265625 225.93449219 -122.1953125 225.20101562 -121.1328125 224.4453125 C-118.38315081 222.80522897 -116.40814929 222.10688767 -113.2578125 221.73046875 C-113.2578125 221.07046875 -113.2578125 220.41046875 -113.2578125 219.73046875 C-106.32040091 215.80627633 -100.1836577 214.94560421 -92.2578125 215.73046875 C-91.2578125 216.73046875 -91.2578125 216.73046875 -90.8203125 220.66796875 C-90.94392482 229.33456613 -97.20970929 236.34424698 -102.8671875 242.43359375 C-110.7327987 249.99074961 -119.06080816 255.76157484 -129.2578125 259.73046875 C-130.48757813 260.26414062 -130.48757813 260.26414062 -131.7421875 260.80859375 C-138.08186695 263.51406205 -144.5446286 265.20789096 -151.2578125 266.73046875 C-153.30258343 275.42396025 -154.71404693 283.81271342 -155.2578125 292.73046875 C-150.6378125 292.73046875 -146.0178125 292.73046875 -141.2578125 292.73046875 C-141.2578125 293.06046875 -141.2578125 293.39046875 -141.2578125 293.73046875 C-147.10669293 294.74940951 -152.76700419 294.84845328 -158.6953125 294.79296875 C-159.61763672 294.78845703 -160.53996094 294.78394531 -161.49023438 294.77929688 C-163.74616298 294.76760813 -166.00195217 294.7512233 -168.2578125 294.73046875 C-168.2578125 294.40046875 -168.2578125 294.07046875 -168.2578125 293.73046875 C-165.9478125 293.40046875 -163.6378125 293.07046875 -161.2578125 292.73046875 C-166.35481233 287.31424811 -166.35481233 287.31424811 -172.2578125 282.85546875 C-186.41690504 272.82611154 -195.28693071 252.21908265 -199.2578125 235.73046875 C-199.55859375 232.30859375 -199.55859375 232.30859375 -199.5703125 228.98046875 C-199.59544922 227.31757813 -199.59544922 227.31757813 -199.62109375 225.62109375 C-199.2578125 222.73046875 -199.2578125 222.73046875 -198.11328125 220.83984375 C-195.31595559 219.16733746 -193.46329569 219.29988146 -190.2578125 219.73046875 C-187.5546875 221.33984375 -187.5546875 221.33984375 -185.0078125 223.48046875 C-184.15703125 224.1765625 -183.30625 224.87265625 -182.4296875 225.58984375 C-180.2578125 227.73046875 -180.2578125 227.73046875 -179.2109375 229.87109375 C-178.41735004 231.88571136 -178.41735004 231.88571136 -176.40625 232.6015625 C-173.26567042 234.25179432 -171.7394615 236.87623954 -169.8828125 239.79296875 C-169.49359619 240.3977002 -169.10437988 241.00243164 -168.70336914 241.62548828 C-164.27758178 248.83781489 -161.74131059 256.68588277 -159.2578125 264.73046875 C-159.05027344 263.85390625 -158.84273437 262.97734375 -158.62890625 262.07421875 C-156.51037941 253.35191577 -154.15058562 244.72135262 -151.6328125 236.10546875 C-151.33173584 235.07486328 -151.03065918 234.04425781 -150.72045898 232.98242188 C-149.56660741 229.06234691 -148.41887309 225.17671942 -147.03125 221.33203125 C-146.19940479 218.53400644 -146.15666505 216.6135741 -146.5078125 213.73046875 C-146.59546875 212.92609375 -146.683125 212.12171875 -146.7734375 211.29296875 C-147.33436132 208.32550079 -148.24939529 205.57387466 -149.2578125 202.73046875 C-150.42183594 202.94703125 -150.42183594 202.94703125 -151.609375 203.16796875 C-169.70003696 206.27662665 -185.17235966 204.7744556 -201.4453125 196.35546875 C-202.50552612 195.81128296 -202.50552612 195.81128296 -203.5871582 195.25610352 C-208.22388009 192.71230369 -211.23316279 190.09361287 -214.2578125 185.73046875 C-214.78797336 181.26197009 -214.77031833 179.4992275 -212.2578125 175.73046875 C-200.48274947 170.49309409 -185.70244414 168.67837516 -173.3828125 172.98046875 C-169.24232847 174.63173321 -165.30376314 176.67229961 -161.359375 178.7421875 C-159.34322488 179.87232009 -159.34322488 179.87232009 -157.2578125 179.73046875 C-159.98250476 173.92739821 -162.97695566 168.3006761 -166.2578125 162.79296875 C-166.8971875 161.71144531 -167.5365625 160.62992188 -168.1953125 159.515625 C-171.22180083 155.42871935 -174.22288854 154.09883151 -178.9453125 152.41796875 C-184.05921327 150.57970231 -188.8797393 147.95122342 -193.2578125 144.73046875 C-193.2578125 144.07046875 -193.2578125 143.41046875 -193.2578125 142.73046875 C-193.9178125 142.73046875 -194.5778125 142.73046875 -195.2578125 142.73046875 C-196.765625 141.05078125 -196.765625 141.05078125 -198.3828125 138.85546875 C-198.92164063 138.13617188 -199.46046875 137.416875 -200.015625 136.67578125 C-201.2578125 134.73046875 -201.2578125 134.73046875 -201.2578125 132.73046875 C-201.9178125 132.73046875 -202.5778125 132.73046875 -203.2578125 132.73046875 C-206.39329259 126.43557361 -208.79912905 120.59852179 -209.8984375 113.62890625 C-210.07394604 111.72658585 -210.07394604 111.72658585 -211.2578125 110.73046875 C-211.40990409 108.79715066 -211.47967581 106.85705591 -211.5078125 104.91796875 C-211.53359375 103.85964844 -211.559375 102.80132812 -211.5859375 101.7109375 C-211.21739646 98.36335641 -210.72130538 97.00987645 -208.2578125 94.73046875 C-202.69012317 93.38552071 -197.22216854 94.52626406 -192.328125 97.33984375 C-182.26229876 104.10104024 -175.02649378 111.51920174 -170.2578125 122.73046875 C-170.01063477 123.30361816 -169.76345703 123.87676758 -169.50878906 124.46728516 C-167.50768347 129.38556336 -166.76385612 133.83717894 -166.3828125 139.10546875 C-165.58963943 147.60242793 -162.98523012 153.63934233 -158.2578125 160.73046875 C-156.44346931 158.91612556 -156.51838527 155.98971762 -156.0703125 153.54296875 C-153.54718177 141.56114504 -148.67295077 131.45805993 -141.2578125 121.73046875 C-140.2678125 120.24546875 -140.2678125 120.24546875 -139.2578125 118.73046875 C-138.5978125 118.73046875 -137.9378125 118.73046875 -137.2578125 118.73046875 C-137.0721875 117.98796875 -136.8865625 117.24546875 -136.6953125 116.48046875 C-134.7255591 112.71224486 -132.16215467 111.263719 -128.2578125 109.73046875 C-125.3203125 109.48046875 -125.3203125 109.48046875 -123.2578125 109.73046875 C-119.57115223 117.10378929 -120.50176968 130.83941439 -122.53515625 138.609375 C-126.86415552 151.31557287 -134.9049297 162.14134876 -144.203125 171.73828125 C-147.58175189 175.22664244 -147.58175189 175.22664244 -148.4453125 179.91796875 C-147.06459983 184.35078311 -145.3257081 188.53666482 -143.4140625 192.765625 C-142.24168355 195.77182643 -141.67509587 198.53919931 -141.2578125 201.73046875 C-140.5978125 201.73046875 -139.9378125 201.73046875 -139.2578125 201.73046875 C-138.1613822 199.01744121 -137.09540252 196.29808546 -136.06640625 193.55859375 C-133.37193897 186.52687857 -130.38512948 179.89450361 -126.7578125 173.29296875 C-123.3845299 167.14412065 -120.70539293 161.01160658 -118.35546875 154.40966797 C-115.1180159 145.38301991 -110.50848707 137.09504697 -105.89453125 128.71484375 C-101.26504674 120.27349253 -96.71894643 111.78966406 -92.48828125 103.140625 C-90.59860876 99.4392665 -88.4964555 95.85782721 -86.39453125 92.2734375 C-84.64490908 88.35933429 -84.92047623 85.74247757 -86.2578125 81.73046875 C-86.9178125 81.73046875 -87.5778125 81.73046875 -88.2578125 81.73046875 C-89.65493524 79.77449691 -90.97708879 77.76455935 -92.2578125 75.73046875 C-92.8971875 74.82296875 -93.5365625 73.91546875 -94.1953125 72.98046875 C-99.72983905 64.25939661 -102.54681392 55.63999986 -104.80371094 45.64208984 C-105.44173222 42.95622606 -106.24196314 40.31981164 -107.0078125 37.66796875 C-108.94354624 29.83947651 -110.43980587 19.79241805 -106.4453125 12.41796875 C-103.66356922 9.00039843 -102.05750396 7.8707655 -97.6953125 7.10546875 C-91.51388801 7.27622633 -87.42645828 11.5688291 -83.2578125 15.73046875 C-73.04778581 27.16391912 -70.33771889 44.72865464 -70.0703125 59.54296875 C-70.2578125 62.73046875 -70.2578125 62.73046875 -71.2578125 64.73046875 C-63.56562074 57.38290924 -56.60189557 48.89907377 -54.23046875 38.39453125 C-52.8225371 34.53826866 -50.57675776 31.42748482 -48.1953125 28.10546875 C-47.74671875 27.47640625 -47.298125 26.84734375 -46.8359375 26.19921875 C-45.70082933 24.66528879 -44.4852321 23.1915823 -43.2578125 21.73046875 C-42.5978125 21.73046875 -41.9378125 21.73046875 -41.2578125 21.73046875 C-41.01160156 20.99699219 -40.76539063 20.26351562 -40.51171875 19.5078125 C-36.43449309 10.47694819 -25.89690279 3.30106366 -16.8203125 -0.14453125 C-11.41985693 -1.73624447 -5.07789044 -2.85521522 0 0 Z " fill="#53B02B" transform="translate(954.2578125,107.26953125)"/>
<path d="M0 0 C6.5127615 0.0538881 10.15779244 1.90875481 15.5 5.375 C18.78292551 7.14834096 22.13126795 8.77152161 25.5 10.375 C26.51578125 10.86097656 27.5315625 11.34695313 28.578125 11.84765625 C37.58801522 15.94401332 46.69024122 18.49710418 56.296875 20.78417969 C58.5 21.375 58.5 21.375 61.20019531 22.35253906 C65.28503713 23.61824767 69.32008367 24.21852651 73.546875 24.8125 C75.29559338 25.07017368 77.04429069 25.32799035 78.79296875 25.5859375 C81.53362514 25.98359169 84.27464017 26.37852313 87.01611328 26.77050781 C89.67328164 27.1524728 92.32882867 27.54444057 94.984375 27.9375 C95.8083075 28.052146 96.63223999 28.16679199 97.48114014 28.28491211 C103.27364641 29.14864641 103.27364641 29.14864641 105.5 31.375 C96.96524921 31.76597741 88.80407595 30.31454054 80.4375 28.8125 C79.68800079 28.67939423 78.93850159 28.54628845 78.16629028 28.40914917 C54.83531545 24.22731369 31.35304285 18.22187728 11.20117188 5.30712891 C5.50445219 1.8313972 3.00144113 2.12514411 -4.5 1.375 C-4.5 153.505 -4.5 305.635 -4.5 462.375 C-6.92854242 458.73218636 -6.7776658 456.06466283 -6.74888897 451.85589409 C-6.75149625 451.079457 -6.75410354 450.30301992 -6.75678983 449.50305444 C-6.76312753 446.87979349 -6.75510349 444.25676851 -6.74723816 441.6335144 C-6.74882519 439.74247846 -6.75128773 437.85144307 -6.75455457 435.96040928 C-6.76099117 430.74716973 -6.75488213 425.53400739 -6.74679029 420.32077289 C-6.74023087 414.70520952 -6.7451579 409.08965503 -6.74867249 403.47409058 C-6.7537225 392.46712368 -6.74806295 381.46018675 -6.73882218 370.45322357 C-6.72845693 357.6484221 -6.72850787 344.84362718 -6.72899476 332.03882231 C-6.72951092 308.5102765 -6.71946359 284.98174945 -6.70449232 261.45320981 C-6.69086463 239.95692275 -6.68463115 218.46064681 -6.68530273 196.96435547 C-6.68534315 195.58386011 -6.68538351 194.20336476 -6.68542381 192.82286941 C-6.68544416 192.14039054 -6.68546452 191.45791168 -6.68548548 190.75475164 C-6.68558627 187.31951743 -6.68567686 183.88428321 -6.68575573 180.449049 C-6.68577244 179.7713853 -6.68578916 179.09372159 -6.68580638 178.39552263 C-6.68624946 156.60344019 -6.6791327 134.8113598 -6.67139288 113.01927891 C-6.66837036 104.08244141 -6.6673126 95.14560488 -6.66686058 86.20876694 C-6.66618005 75.32723955 -6.66173773 64.44572103 -6.65252777 53.56419741 C-6.64789533 48.00671831 -6.64486958 42.44925057 -6.64612198 36.89176941 C-6.64721104 31.81303261 -6.64373552 26.73432101 -6.63647345 21.65558948 C-6.63464905 19.80977944 -6.63454047 17.96396682 -6.63624074 16.11815666 C-6.6382835 13.62621505 -6.63428188 11.13435784 -6.62863445 8.64242363 C-6.63068977 7.91111797 -6.63274509 7.17981232 -6.63486269 6.42634588 C-6.60929388 0.33017872 -6.0100691 0.19730025 0 0 Z " fill="#E1E1E1" transform="translate(569.5,257.625)"/>
<path d="M0 0 C1.73046875 1.734375 1.73046875 1.734375 2.296875 3.64453125 C2.27869391 13.66231225 -3.14276699 21.20945172 -9.26953125 28.734375 C-9.73101563 29.34152344 -10.1925 29.94867188 -10.66796875 30.57421875 C-14.4942672 35.4046563 -18.97521033 38.62516472 -24.26953125 41.734375 C-24.93726563 42.14042969 -25.605 42.54648438 -26.29296875 42.96484375 C-28.69933186 43.90170844 -29.87764179 43.58862124 -32.26953125 42.734375 C-31.51929688 42.41726562 -30.7690625 42.10015625 -29.99609375 41.7734375 C-16.72884502 35.72464148 -9.02543157 26.31128603 -2.26953125 13.734375 C-1.35260164 10.98358616 -1.16067042 9.37488587 -1.20703125 6.546875 C-1.22765625 5.28875 -1.24828125 4.030625 -1.26953125 2.734375 C-5.31910394 0.70958865 -9.87685507 1.17163166 -14.26953125 1.734375 C-25.11805286 5.4652752 -33.34098659 12.79431738 -40.26953125 21.734375 C-40.59953125 21.074375 -40.92953125 20.414375 -41.26953125 19.734375 C-32.63377778 9.39246963 -15.05004669 -8.39279712 0 0 Z " fill="#EFF8EC" transform="translate(954.26953125,107.265625)"/>
<path d="M0 0 C8.67764686 -0.66073453 13.76384576 0.30488388 21 5 C24.28292551 6.77334096 27.63126795 8.39652161 31 10 C32.01578125 10.48597656 33.0315625 10.97195313 34.078125 11.47265625 C43.08801522 15.56901332 52.19024122 18.12210418 61.796875 20.40917969 C64 21 64 21 66.70019531 21.97753906 C70.78503713 23.24324767 74.82008367 23.84352651 79.046875 24.4375 C80.79559338 24.69517368 82.54429069 24.95299035 84.29296875 25.2109375 C87.03362514 25.60859169 89.77464017 26.00352313 92.51611328 26.39550781 C95.17328164 26.7774728 97.82882867 27.16944057 100.484375 27.5625 C101.3083075 27.677146 102.13223999 27.79179199 102.98114014 27.90991211 C108.77364641 28.77364641 108.77364641 28.77364641 111 31 C102.46524921 31.39097741 94.30407595 29.93954054 85.9375 28.4375 C85.18800079 28.30439423 84.43850159 28.17128845 83.66629028 28.03414917 C59.95600107 23.78432552 37.39097512 17.32990459 16.63085938 4.93432617 C11.20864187 1.82448472 6.30389633 0.66610719 0 1 C0 0.67 0 0.34 0 0 Z " fill="#E3E3E3" transform="translate(564,258)"/>
<path d="M0 0 C0.66 0 1.32 0 2 0 C3.76171875 1.79296875 3.76171875 1.79296875 5.6875 4.1875 C6.33074219 4.96480469 6.97398437 5.74210938 7.63671875 6.54296875 C9.35405175 9.63810474 8.92912172 10.65560141 8 14 C7.02294922 16.03515625 7.02294922 16.03515625 5.8046875 18.0625 C5.34376709 18.84415527 4.88284668 19.62581055 4.40795898 20.43115234 C3.90208252 21.27887207 3.39620605 22.1265918 2.875 23 C-2.18256189 31.66856392 -6.96158762 40.45813289 -11.5625 49.375 C-11.87738373 49.98515961 -12.19226746 50.59531921 -12.51669312 51.22396851 C-18.59390458 63.02944476 -24.37777887 74.97118586 -30 87 C-31.36757115 82.89728654 -30.11669014 81.34557812 -28.375 77.4375 C-28.09720703 76.81125732 -27.81941406 76.18501465 -27.53320312 75.53979492 C-23.94052557 67.51279139 -19.90629599 59.75958755 -15.671875 52.0546875 C-11.03693959 43.58618401 -6.47279737 35.08303966 -2.23046875 26.41015625 C-0.34079626 22.70879775 1.761357 19.12735846 3.86328125 15.54296875 C5.61290342 11.62886554 5.33733627 9.01200882 4 5 C3.34 5 2.68 5 2 5 C1.34 3.35 0.68 1.7 0 0 Z " fill="#F0F8ED" transform="translate(864,184)"/>
<path d="M0 0 C0.62334229 0.32742188 1.24668457 0.65484375 1.88891602 0.9921875 C5.74781778 3.16126416 8.37572211 5.42822964 10.8125 9.125 C11.30562987 12.50646194 10.99640608 14.59780257 9.875 17.8125 C6.35544013 21.75867319 1.63182149 22.9109921 -3.5546875 23.3046875 C-5.43323487 23.31137272 -7.31172906 23.22731478 -9.1875 23.125 C-9.1875 22.795 -9.1875 22.465 -9.1875 22.125 C-8.29546875 21.95484375 -7.4034375 21.7846875 -6.484375 21.609375 C-5.31390625 21.36703125 -4.1434375 21.1246875 -2.9375 20.875 C-1.77734375 20.64296875 -0.6171875 20.4109375 0.578125 20.171875 C4.07473138 19.04012318 5.58052208 18.00706857 7.8125 15.125 C8.47916667 12.125 8.47916667 12.125 7.8125 9.125 C4.90164953 5.59187745 1.7671169 3.91828714 -2.375 2.0625 C-3.44105469 1.57652344 -4.50710938 1.09054687 -5.60546875 0.58984375 C-13.49861065 -2.63799508 -20.18735667 -4.34262288 -28.75 -4.5625 C-30.11995117 -4.61374023 -30.11995117 -4.61374023 -31.51757812 -4.66601562 C-33.74076229 -4.74749358 -35.96360197 -4.81695738 -38.1875 -4.875 C-38.1875 -5.205 -38.1875 -5.535 -38.1875 -5.875 C-24.76450087 -8.11216652 -12.07040257 -6.37962359 0 0 Z " fill="#EBF5E6" transform="translate(896.1875,272.875)"/>
<path d="M0 0 C7.52913025 1.84101836 13.26535618 8.97302418 17.12890625 15.328125 C21.65007968 23.84994203 21.65007968 23.84994203 20.8828125 27.796875 C20.60244141 28.67279297 20.60244141 28.67279297 20.31640625 29.56640625 C20.001875 28.76976562 19.68734375 27.973125 19.36328125 27.15234375 C15.48164998 17.54179886 11.04945237 8.43292931 1.31640625 3.56640625 C-3.38937715 3.08522017 -3.38937715 3.08522017 -7.55859375 4.87890625 C-9.66406623 8.03711497 -9.80353543 10.77602919 -9.78125 14.453125 C-9.77802734 15.39091797 -9.77480469 16.32871094 -9.77148438 17.29492188 C-9.75891602 18.75961914 -9.75891602 18.75961914 -9.74609375 20.25390625 C-9.74158203 21.24197266 -9.73707031 22.23003906 -9.73242188 23.24804688 C-9.72063678 25.68756099 -9.70418386 28.12695314 -9.68359375 30.56640625 C-10.34359375 30.23640625 -11.00359375 29.90640625 -11.68359375 29.56640625 C-13.60221013 22.9069507 -14.02882527 13.76858986 -11.89453125 7.1015625 C-9.10882809 2.07241138 -5.81502783 -0.16063613 0 0 Z " fill="#EEF7EB" transform="translate(858.68359375,114.43359375)"/>
<path d="M0 0 C1.0354051 3.1848935 0.94040666 5.13031874 0.00390625 8.328125 C-0.33930664 9.52695312 -0.33930664 9.52695312 -0.68945312 10.75 C-0.93630859 11.575 -1.18316406 12.4 -1.4375 13.25 C-1.68048828 14.09046875 -1.92347656 14.9309375 -2.17382812 15.796875 C-2.77373949 17.86715734 -3.38570819 19.93393897 -4 22 C-3.21238281 21.38253906 -2.42476562 20.76507813 -1.61328125 20.12890625 C4.17428697 15.61700556 10.0092306 11.17708125 16 6.9375 C17.03125 6.20402344 18.0625 5.47054688 19.125 4.71484375 C21.87466169 3.07476022 23.84966321 2.37641892 27 2 C22.78601514 5.47860319 18.36002281 8.57589085 13.875 11.6875 C7.64958625 16.03349297 1.69527948 20.53593731 -4.09375 25.453125 C-6 27 -6 27 -7 27 C-6.36439703 21.53959266 -5.10387481 16.50154439 -3.5 11.25 C-3.27441406 10.49589844 -3.04882812 9.74179687 -2.81640625 8.96484375 C-1.91528424 5.96288109 -0.99118452 2.97355357 0 0 Z " fill="#EAF5E5" transform="translate(814,327)"/>
<path d="M0 0 C4.48799781 4.48799781 4.10704106 15.59417328 4.1875 21.8125 C4 25 4 25 3 27 C7.00936388 23.22180665 10.17270443 19.20415407 13.3125 14.6875 C13.76689453 14.04232422 14.22128906 13.39714844 14.68945312 12.73242188 C15.79735952 11.15802858 16.89930525 9.57944354 18 8 C18.33 8.99 18.66 9.98 19 11 C17.74651631 13.17551736 16.4771885 15.1104145 15 17.125 C14.38511719 17.98581177 14.38511719 17.98581177 13.7578125 18.86401367 C6.45339155 29.02243295 6.45339155 29.02243295 3 33 C2.67 33 2.34 33 2 33 C1.97494385 32.39115967 1.9498877 31.78231934 1.92407227 31.1550293 C1.32697197 15.55255003 1.32697197 15.55255003 0 0 Z " fill="#F4FAF2" transform="translate(880,145)"/>
<path d="M0 0 C4.14879375 0.56118949 6.94359514 2.97959332 10.125 5.5 C10.69831055 5.94923828 11.27162109 6.39847656 11.86230469 6.86132812 C22.43536174 15.22798763 32.95287976 24.35693178 40 36 C39.505 36.99 39.505 36.99 39 38 C38.35675781 37.21238281 37.71351563 36.42476563 37.05078125 35.61328125 C26.75807007 23.14371192 16.11339292 12.32402432 2.82421875 3.046875 C1.89222656 2.37140625 0.96023438 1.6959375 0 1 C0 0.67 0 0.34 0 0 Z " fill="#E1E1E1" transform="translate(880,419)"/>
<path d="M0 0 C0.99 0.33 1.98 0.66 3 1 C2.34 1.66 1.68 2.32 1 3 C0.41585298 6.37306618 0.41585298 6.37306618 1 10 C4.64030134 14.40594789 8.69967023 16.71148399 13.75 19.125 C14.45576172 19.47046875 15.16152344 19.8159375 15.88867188 20.171875 C20.82145978 22.54541115 25.72875466 24.4939299 31 26 C31 26.33 31 26.66 31 27 C24.76882852 26.51527527 20.03788319 25.03413418 14.4375 22.3125 C13.72142578 21.98572266 13.00535156 21.65894531 12.26757812 21.32226562 C6.93467373 18.78440484 0.73542264 15.47084529 -2 10 C-2.35294118 3.52941176 -2.35294118 3.52941176 0 0 Z " fill="#ECF6E8" transform="translate(742,283)"/>
<path d="M0 0 C0.66 0.33 1.32 0.66 2 1 C1.54786133 1.43119141 1.09572266 1.86238281 0.62988281 2.30664062 C-9.17447631 11.71842784 -17.97787738 21.2545767 -25.81884766 32.36132812 C-27.46282678 34.6421028 -29.21938601 36.82507754 -31 39 C-30.45418808 35.22285009 -29.53169358 32.92899822 -27.19140625 29.92578125 C-26.61382568 29.18030029 -26.03624512 28.43481934 -25.44116211 27.66674805 C-24.82120361 26.88984619 -24.20124512 26.11294434 -23.5625 25.3125 C-22.93158447 24.51175049 -22.30066895 23.71100098 -21.65063477 22.88598633 C-16.80038806 16.81225397 -11.67767791 11.31203139 -6 6 C-4.32853029 4.33815026 -2.66097843 2.67233555 -1 1 C-0.67 0.67 -0.34 0.34 0 0 Z " fill="#E1E1E1" transform="translate(129,434)"/>
<path d="M0 0 C5.0671633 0.20031246 9.20405078 1.48915119 13.3125 4.5 C14.3025 5.985 14.3025 5.985 15.3125 7.5 C11.90854409 6.39371433 8.57116267 5.20472547 5.25 3.875 C2.1534228 2.69223827 -0.33589297 2.18578684 -3.6875 2.5 C-4.8357685 4.796537 -4.80311175 6.08313167 -4.78515625 8.6328125 C-4.78193359 9.43847656 -4.77871094 10.24414062 -4.77539062 11.07421875 C-4.76701172 11.91597656 -4.75863281 12.75773438 -4.75 13.625 C-4.74323242 14.89923828 -4.74323242 14.89923828 -4.73632812 16.19921875 C-4.72452874 18.29950909 -4.70659306 20.3997633 -4.6875 22.5 C-5.0175 22.5 -5.3475 22.5 -5.6875 22.5 C-8.21451252 16.81422184 -8.47984099 10.61721326 -7.6875 4.5 C-5.7114964 0.73678294 -4.20144837 -0.05276544 0 0 Z " fill="#F1F8ED" transform="translate(750.6875,201.5)"/>
<path d="M0 0 C0.66 0.33 1.32 0.66 2 1 C-3.17884035 6.83647088 -8.4196941 12.54588192 -14 18 C-15.299375 19.299375 -15.299375 19.299375 -16.625 20.625 C-19.08333333 23.08333333 -21.54166667 25.54166667 -24 28 C-22.52861314 23.45053947 -19.95906908 20.18795531 -16.875 16.625 C-16.38580078 16.05281738 -15.89660156 15.48063477 -15.39257812 14.89111328 C-12.06507708 11.06231224 -8.58949704 7.58378359 -4.65625 4.3671875 C-2.99783203 2.9982104 -1.49674943 1.54238203 0 0 Z " fill="#999999" transform="translate(722,426)"/>
<path d="M0 0 C2.28005986 2.8818352 4.00939493 5.79764802 5.6875 9.0625 C10.55455865 18.08583399 16.43029575 26.06898955 24 33 C21 33 21 33 18.6875 30.9375 C17.800625 29.968125 16.91375 28.99875 16 28 C15.53464844 27.50371094 15.06929687 27.00742187 14.58984375 26.49609375 C8.45319036 19.704864 0 9.56292243 0 0 Z " fill="#F1F8ED" transform="translate(761,357)"/>
<path d="M0 0 C0 0.66 0 1.32 0 2 C-0.76183594 2.3403125 -1.52367187 2.680625 -2.30859375 3.03125 C-12.12578027 7.63956727 -19.37273159 13.44868593 -26 22 C-26.33 21.34 -26.66 20.68 -27 20 C-10.29949239 0 -10.29949239 0 0 0 Z " fill="#F1F8EE" transform="translate(940,107)"/>
<path d="M0 0 C1.01320313 0.18900879 1.01320313 0.18900879 2.046875 0.38183594 C3.73452164 0.72641145 5.40165043 1.16842345 7.0625 1.625 C7.3925 2.285 7.7225 2.945 8.0625 3.625 C1.50115212 2.74174163 1.50115212 2.74174163 -0.87402344 2.10961914 C-3.17962002 1.56813674 -5.33772996 1.41473327 -7.703125 1.30859375 C-8.59257813 1.26669922 -9.48203125 1.22480469 -10.3984375 1.18164062 C-11.31882812 1.14232422 -12.23921875 1.10300781 -13.1875 1.0625 C-14.12335937 1.01931641 -15.05921875 0.97613281 -16.0234375 0.93164062 C-18.32798641 0.8258195 -20.63263839 0.72373443 -22.9375 0.625 C-22.9375 0.295 -22.9375 -0.035 -22.9375 -0.375 C-14.92091631 -1.71109728 -7.99135997 -1.53130109 0 0 Z " fill="#F5FAF3" transform="translate(880.9375,267.375)"/>
<path d="M0 0 C-0.79664063 0.45890625 -1.59328125 0.9178125 -2.4140625 1.390625 C-7.71118249 4.45805701 -12.97089671 7.50756716 -18 11 C-16.74194623 6.49197399 -15.09592835 3.5087188 -12 0 C-11.67 0.99 -11.34 1.98 -11 3 C-10.18595703 2.54947266 -10.18595703 2.54947266 -9.35546875 2.08984375 C-8.64003906 1.70957031 -7.92460938 1.32929688 -7.1875 0.9375 C-6.47980469 0.55464844 -5.77210938 0.17179688 -5.04296875 -0.22265625 C-3 -1 -3 -1 0 0 Z " fill="#EBF6E7" transform="translate(881,211)"/>
<path d="M0 0 C8.53611026 -0.64995763 13.92863668 0.15106515 21 5 C22.010625 5.598125 23.02125 6.19625 24.0625 6.8125 C24.701875 7.204375 25.34125 7.59625 26 8 C25.67 8.66 25.34 9.32 25 10 C24.11699219 9.43410156 23.23398437 8.86820312 22.32421875 8.28515625 C14.90888016 3.69698032 8.99064703 0.70642785 0 1 C0 0.67 0 0.34 0 0 Z " fill="#F1F1F1" transform="translate(564,258)"/>
<path d="M0 0 C0.86367188 -0.01675781 1.72734375 -0.03351563 2.6171875 -0.05078125 C5.55596692 0.37492979 6.92333799 1.37196534 9.125 3.3125 C8.795 5.6225 8.465 7.9325 8.125 10.3125 C7.795 10.3125 7.465 10.3125 7.125 10.3125 C7.00125 9.343125 6.8775 8.37375 6.75 7.375 C6.54375 6.364375 6.3375 5.35375 6.125 4.3125 C3.55606162 3.02803081 1.35923663 2.98272856 -1.5 2.75 C-2.50289062 2.66621094 -3.50578125 2.58242187 -4.5390625 2.49609375 C-5.30992187 2.43550781 -6.08078125 2.37492187 -6.875 2.3125 C-4.37490913 -0.18759087 -3.4537141 0.01537261 0 0 Z " fill="#E4F2DE" transform="translate(946.875,105.6875)"/>
<path d="M0 0 C4.35173399 0.88051109 7.30240975 3.20027614 10.75 5.875 C11.35199219 6.32230469 11.95398438 6.76960938 12.57421875 7.23046875 C14.11058318 8.41148359 15.56292624 9.69998818 17 11 C17 11.99 17 12.98 17 14 C16.35933594 13.48050781 15.71867188 12.96101563 15.05859375 12.42578125 C11.06273778 9.20408515 7.08501754 6.00173196 2.875 3.0625 C1.92625 2.381875 0.9775 1.70125 0 1 C0 0.67 0 0.34 0 0 Z " fill="#EDEDED" transform="translate(880,419)"/>
<path d="M0 0 C-6.17639651 3.27320553 -12.95500989 5.55618343 -20 5 C-19.34 3.68 -18.68 2.36 -18 1 C-18 1.66 -18 2.32 -18 3 C-17.20335937 2.7834375 -16.40671875 2.566875 -15.5859375 2.34375 C-14.52632812 2.0653125 -13.46671875 1.786875 -12.375 1.5 C-11.33085938 1.2215625 -10.28671875 0.943125 -9.2109375 0.65625 C-6.04312582 0.00881404 -3.22258533 -0.1161292 0 0 Z " fill="#EBF5E6" transform="translate(858,268)"/>
<path d="M0 0 C0.33 0.66 0.66 1.32 1 2 C-2.56879789 7.40838443 -6.20198139 12.74979781 -10 18 C-10.33 17.34 -10.66 16.68 -11 16 C-9.730624 14.08236785 -8.45944055 12.16593207 -7.1875 10.25 C-6.47980469 9.18265625 -5.77210938 8.1153125 -5.04296875 7.015625 C-3.42050074 4.6207009 -1.76324711 2.29166502 0 0 Z " fill="#EFF7EB" transform="translate(895,167)"/>
<path d="M0 0 C1.66611905 -0.042721 3.33382885 -0.04063832 5 0 C6 1 6 1 6.375 4.75 C6.36162636 8.46787234 6.06306844 8.92431788 3.5 12 C2.675 12.66 1.85 13.32 1 14 C1.309375 13.29875 1.61875 12.5975 1.9375 11.875 C3.03302678 8.91063343 3.56422992 6.12301892 4 3 C2.68 2.01 1.36 1.02 0 0 Z " fill="#F2F9F0" transform="translate(919,202)"/>
<path d="M0 0 C3.98069267 2.87494471 6.43571997 5.82117329 9 10 C8.67 10.66 8.34 11.32 8 12 C6.66081194 10.37982158 5.3288031 8.75370657 4 7.125 C3.2575 6.22007812 2.515 5.31515625 1.75 4.3828125 C0 2 0 2 0 0 Z " fill="#ECECEC" transform="translate(911,445)"/>
<path d="M0 0 C0.66 0.33 1.32 0.66 2 1 C-2.82142857 7.29464286 -2.82142857 7.29464286 -7 8 C-6.02133662 6.85373678 -5.04205413 5.70800212 -4.0625 4.5625 C-3.51722656 3.92441406 -2.97195313 3.28632813 -2.41015625 2.62890625 C-1.63204305 1.73008851 -0.84063472 0.84063472 0 0 Z " fill="#E3F2DD" transform="translate(942,136)"/>
<path d="M0 0 C0.66 0.33 1.32 0.66 2 1 C-1.96 4.465 -1.96 4.465 -6 8 C-6 5 -6 5 -4.125 2.875 C-2 1 -2 1 0 0 Z " fill="#F3F9F1" transform="translate(824,218)"/>
<path d="M0 0 C2.15377564 2.62198774 3.40072174 4.64404172 4 8 C1.525 7.01 1.525 7.01 -1 6 C-0.67 4.02 -0.34 2.04 0 0 Z " fill="#E4F2DE" transform="translate(797,284)"/>
</svg>
