<svg version="1.2" xmlns="http://www.w3.org/2000/svg" viewBox="0 0 722 654" width="722" height="654"><defs><clipPath clipPathUnits="userSpaceOnUse" id="cp1"><path d="m-1500-547h2480v1748h-2480z"/></clipPath></defs><style>.a{fill:#42a816}.b{fill:#fff;stroke:#fff;stroke-miterlimit:100;stroke-width:4.2}.c{fill:#fff}</style><g clip-path="url(#cp1)"><path class="a" d="m587.9 164.7c-11.3 1.6-23.3-2.6-33.1-8-2.9-1.7-7.8-4.4-8.8-8v-2.9c0.8-2.8 3.6-3.5 6-4.1 5.9-1.5 11.8-2.3 17.9-1.8 9 0.7 16.4 5 24.5 10-3-7.8-6.8-14.3-10.8-20.6-1.8-3-3.6-5.5-7.8-6.6-7.8-2-15.3-8.4-18.8-13.4q-5.2-7.4-7.1-16.2c-0.9-4.4-1.9-10-0.2-14.2q0.1-0.4 0.4-0.6c2-2.1 8.4 0.8 10.4 1.7 13.2 6 22 20.5 21.9 34.8 0 8.2 4.7 13.2 9.1 19.1-0.5-0.6 0.6-4.4 0.8-5.3q0.4-2.6 0.9-5.2c1.7-7.7 5.1-14.6 9.6-21.1 2.7-4 5.6-8 9.6-10.8 1.9-1.3 4.2-3.2 5.5-0.4q0.5 1.1 0.6 2.3c1.4 8 1.4 16.5-2.7 23.8-2.7 4.8-5.5 9.6-8.9 14-3.4 4.4-7.5 8.2-11.3 12.6 3.9 7.6 6.6 15.4 8.7 23.6 15.3-33 29.5-66.1 48.3-96.9-4-4.5-7.7-8.3-10.4-13-6.3-11-8.8-23.1-10.4-35.5q-0.7-5 1.2-9.8c1.8-4.3 5.6-5.4 9.8-3.1q4.1 2.2 7.1 5.9c5.4 6.6 7.7 14.4 9 22.6 1.1 6.5 0.6 13.1 0.1 21.2 3.8-5 6.8-8.8 9.6-12.6 2.1-2.9 4.3-5.7 5.2-9.2 2.9-10.8 10.4-18.5 17.8-26.2q5.7-5.9 13.4-8.7c3.1-1.1 6.4-1.9 9.7-1 7.7 2.4 0 13.5-2.7 17.7-4.2 6.5-9.9 12.3-17.1 15.3-12.5 5.1-17.5 2.8-31.3 24-7.3 11.1-13.2 23-20.2 35.2 20.7-16.2 42.4-19.8 49.5-14.2 1.2 2.8-1.3 5.9-2.9 8.5-5.9 8.9-14.8 13.3-25 15.2-7.7 1.4-15.5 2.4-23.4 2.4-2.3 0-4.3 0.3-5.6 2.7-4.6 8.3-8.4 17-12.1 26.2 5.2 0.3 9.2-1.8 13.4-2.9 12.5-3.3 23.9-0.4 34.9 5.6 2.5 1.4 5.8 3.1 6.1 6.4 0.4 3.7-3 6.4-6.3 7.5-7.2 2.3-15 2.7-22.5 1.7-8-1-15.3-4.2-22.8-7l-5-2c-0.5-0.2-1.5-0.7-2.1-0.7-8.6 18.8-16.4 37.5-21.3 57.4 3.9-2.5 7-6 10.8-8.7 3.6-2.6 17-13.2 26.2-15.8 2.6-0.7 5.2-1.2 7.8 0.8 1.8 2.8-1.3 7.8-3.6 11.1-7.9 11.7-19.1 19-32.5 23.3-2.5 0.8-5.1 1.6-7.7 2.2-3.7 0.9-5.4 3-6 6.9-0.1 2.9-1 6.1-1.3 9.1q-0.5 4.8-0.9 9.7-0.7 9.8-0.8 19.6c0 1-0.2 2.2-1.2 2.5-0.7 0.2-1.4-0.3-1.7-0.9-0.3-0.7-0.4-1.4-0.3-2.1q0.1-8.1 0.8-16.2c0.2-2.1 0.5-4.3-0.3-6.3-0.9-2.2-2.9-3.8-4.8-5.3q-9-7.4-15.1-17.3-6.1-9.9-8.8-21.2c-0.7-2.8-1.2-5.7-1-8.6 0.1-1.3 0.5-2.8 1.6-3.6q0.3-0.2 0.6-0.3c1.3-0.6 3-0.1 4.3 0.6 2.8 1.3 5.3 3.4 7.5 5.6q10.8 10.6 15 25c0.4 1.5 0.7 3 1.2 4.4 0 0.3 1.8 3.7 2.2 3.2 0.6-1.1 0.6-3.1 0.9-4.4q0.4-2.2 0.9-4.4 0.9-4.5 2-9 2-8.5 5.2-16.7c2.9-7.3 1.3-14.3-0.7-21.8 0.2 0.8-9.7 3-10.7 3.2z"/><path fill-rule="evenodd" class="b" d="m130.6 551.4q-40.7 0-69.2-21.4-28.5-21.4-43.4-57.2-14.9-35.8-14.9-77.6 0-41.8 14.9-77.3 14.9-35.5 43.4-57.2 28.5-21.7 69.2-21.7 78.6 0 106.3 75.4h6v-66.1q0-46.1-5.5-65.7-5.4-19.5-13-26.6v-5.4q25.5-1.1 52.9-7.3 27.4-6.2 44.8-18.2h5.9v331.9q0 19 6.3 31 6.2 11.9 18.1 11.9 8.2 0 13.3-6 5.2-5.9 7.4-14.6l5.4 1.1q-3.3 29.8-17.9 50.4-14.7 20.6-44.5 20.6-67.3 0-72.1-77h-6.6q-12.4 38.5-39.8 57.8-27.4 19.2-67 19.2zm280.4-426.3q17.9 12 45.3 18.2 27.4 6.2 52.4 7.3v5.4q-7.1 6.6-12.8 26.1-5.7 19.5-5.7 66.2v69.9h6q23.9-78.7 103.6-78.7 38 0 64.3 19.8 26.3 19.8 40.1 54.8 13.9 35 13.9 81.1 0 47.2-17.7 82.5-17.6 35.2-48 54.5-30.4 19.2-68.3 19.2-51.6 0-96.6-15.7-45-15.7-81.9-42.9v-367.7zm-246.3 392.7q32.6 0 53.5-32.6 20.9-32.5 20.9-90 0-57.5-20.9-89.8-20.9-32.2-53.5-32.2-31.4 0-52.6 32.2-21.1 32.3-21.1 89.8 0 57.5 21.1 90 21.2 32.6 52.6 32.6zm396.6 21.2q30.3 0 50.4-33.4 20.1-33.4 20.1-97.4 0-64-17.6-97.9-17.7-33.9-48.1-33.9-25.5 0-42.5 24.7-17.1 24.7-25.3 66.7-8.1 42-8.1 94.1 7.1 28.8 19.3 45.6 12.2 16.8 26.3 24.1 14.1 7.4 25.5 7.4z"/><path fill-rule="evenodd" class="c" d="m3.5 608.9h12.1v16.3h15.5v-16.3h12.1v43.5h-12.1v-16.5h-15.5v16.5h-12.1zm62.3 0h35.1v10.3h-23.1v6.6h20.9v9.5h-20.9v7h23.4v10.2h-35.4zm56.4 0h12.1v33h21.1v10.6h-33.2zm53.3 0h18.7c11 0 18.1 5.7 18.1 15.3v0.2c0 10.2-7.9 15.6-18.7 15.6h-6v12.5h-12.1zm17.8 21.7c4.3 0 6.9-2.3 6.9-5.7v-0.1c0-3.8-2.6-5.7-6.9-5.7h-5.7v11.5zm76.4 5.6l-16.6-27.3h13.8l9 15.9 9-15.9h13.5l-16.6 27.1v16.5h-12.1zm41.8-5.4v-0.1c0-12.5 10.1-22.7 23.6-22.7 13.4 0 23.4 10.1 23.4 22.6v0.1c0 12.5-10.1 22.7-23.6 22.7-13.4 0-23.4-10.1-23.4-22.6zm34.6 0v-0.1c0-6.3-4.5-11.8-11.2-11.8-6.6 0-11 5.4-11 11.7v0.1c0 6.3 4.6 11.8 11.2 11.8 6.6 0 11-5.4 11-11.7zm33 2.6v-24.5h12.3v24.2c0 6.3 3.2 9.3 8 9.3 4.9 0 8-2.9 8-9v-24.5h12.3v24.2c0 14-8 20.2-20.4 20.2-12.4 0-20.2-6.3-20.2-19.9zm86-2.6v-0.1c0-12.7 10-22.7 23.5-22.7 7.6 0 13.1 2.4 17.7 6.4l-7.1 8.5c-3.1-2.6-6.3-4.1-10.6-4.1-6.2 0-11.1 5.3-11.1 12v0.1c0 7 4.9 12.1 11.8 12.1 3 0 5.2-0.6 7-1.8v-5.3h-8.6v-8.9h20.1v19.6c-4.7 3.8-11.1 6.8-19 6.8-13.5 0-23.7-9.4-23.7-22.6zm64.3-21.9h20.6c6.7 0 11.3 1.8 14.2 4.7 2.6 2.5 3.9 5.9 3.9 10.2v0.1c0 6.7-3.6 11.1-9 13.4l10.4 15.2h-14l-8.7-13.2h-5.3v13.2h-12.1zm20 20.9c4.2 0 6.5-2 6.5-5.1v-0.2c0-3.4-2.5-5.1-6.5-5.1h-7.9v10.4zm38.1 1v-0.1c0-12.5 10.1-22.7 23.6-22.7 13.4 0 23.4 10.1 23.4 22.6v0.1c0 12.5-10.1 22.7-23.6 22.7-13.4 0-23.4-10.1-23.4-22.6zm34.6 0v-0.1c0-6.3-4.5-11.8-11.2-11.8-6.6 0-11 5.4-11 11.7v0.1c0 6.3 4.6 11.8 11.2 11.8 6.6 0 11-5.4 11-11.7zm28.2-21.9h12.7l7.6 25.2 8.4-25.3h10.4l8.4 25.3 7.6-25.2h12.5l-14.5 43.9h-10.6l-8.7-25.1-8.8 25.1h-10.5z"/></g></svg>